<svg width="138" height="173" viewBox="0 0 138 173" fill="none" xmlns="http://www.w3.org/2000/svg">
<g opacity="0.88">
<path d="M98.7244 85.7802C96.6519 92.9293 92.1894 98.9985 85.4593 103.82C68.8472 115.719 51.9762 105.558 51.266 105.119C48.9466 103.689 47.8553 100.863 48.6136 98.2476C48.7661 97.7216 48.9904 97.2165 49.2803 96.7464C51.0313 93.9072 54.7742 93.0081 57.623 94.7429C58.0579 95.0016 68.4486 101.035 78.3719 93.9254C83.9681 89.9165 86.2138 85.3803 87.1122 82.2812C88.084 78.9292 87.7349 76.5479 87.7318 76.5246C87.5906 75.6329 87.6456 74.7441 87.8952 73.8829C88.5494 71.6262 90.4711 69.9305 92.7911 69.563C96.1048 69.0389 99.2278 71.3084 99.7522 74.6214C99.7942 74.8854 100.15 77.308 99.7225 80.8808C99.5251 82.5272 99.1896 84.1756 98.7244 85.7802Z" fill="#8F1318"/>
<path d="M48.9372 98.3398C49.0786 97.852 49.2878 97.3747 49.5673 96.9213C51.2275 94.2282 54.75 93.3852 57.4481 95.028C57.9601 95.3328 68.4826 101.422 78.5683 94.1974C84.0619 90.2619 86.4356 85.8238 87.436 82.3728C88.4245 78.9632 88.0724 76.5172 88.0645 76.4693C87.9279 75.6077 87.9904 74.7604 88.2183 73.9743C88.8195 71.9007 90.5693 70.2534 92.8429 69.8934C95.9786 69.3977 98.9226 71.5374 99.4186 74.6725C99.4591 74.9269 99.8081 77.3208 99.3872 80.8388C99.2136 82.2866 98.9097 83.9253 98.3999 85.6838C96.8049 91.1857 93.1951 97.8605 85.262 103.544C68.8401 115.308 52.1445 105.264 51.4417 104.831C49.194 103.444 48.2361 100.758 48.9372 98.3398ZM48.2902 98.1523C47.4901 100.912 48.6413 103.894 51.089 105.404C51.8071 105.847 68.8703 116.115 85.6553 104.091C92.4482 99.2248 96.9537 93.0944 99.0476 85.8715C99.5178 84.2495 99.857 82.5833 100.056 80.9191C100.488 77.3069 100.127 74.8372 100.084 74.5673C99.5307 71.0706 96.235 68.6753 92.7377 69.2282C90.2897 69.6162 88.2618 71.4052 87.5713 73.7867C87.3078 74.6957 87.2497 75.6341 87.3985 76.575C87.4016 76.5955 87.7316 78.9313 86.7882 82.1857C85.9046 85.2336 83.6933 89.697 78.1751 93.65C68.4273 100.633 58.2214 94.705 57.7919 94.4494C54.791 92.6221 50.8408 93.5712 48.9928 96.5682C48.6878 97.064 48.4512 97.5972 48.2902 98.1523Z" fill="#020001"/>
<path d="M92.8423 69.892C89.7064 70.3885 87.5668 73.3346 88.0631 76.4684C88.0769 76.5516 89.1295 83.9187 82.3179 90.9734C86.1462 92.342 89.33 94.7287 91.7298 97.7318C97.0472 91.6748 98.8474 85.3367 99.3866 80.8374C99.8075 77.3194 99.4584 74.9262 99.418 74.6711C98.922 71.536 95.9781 69.3963 92.8423 69.892Z" fill="#020001" stroke="#020001" stroke-miterlimit="10" stroke-linecap="round" stroke-linejoin="round"/>
<path d="M134.238 185.909C133.088 185.909 131.965 185.583 130.991 184.966C118.057 176.783 115.651 165.971 115.909 158.342C116.175 150.499 119.297 144.623 119.653 143.979C120.724 142.037 122.767 140.832 124.986 140.832C126.007 140.832 127.021 141.094 127.919 141.59C130.842 143.203 131.92 146.899 130.323 149.829L130.28 149.911C127.796 154.526 123.441 166.16 136.631 174.504C139.394 176.253 141.204 180.203 139.386 183.078C138.265 184.851 136.34 185.909 134.238 185.909Z" fill="#8F1318"/>
<path d="M124.986 141.166C125.925 141.166 126.877 141.397 127.757 141.882C130.529 143.411 131.541 146.891 130.028 149.666C129.169 151.271 121.34 165.226 136.451 174.787C139.134 176.484 140.799 180.213 139.103 182.896C138.009 184.625 136.145 185.572 134.24 185.572C133.189 185.572 132.126 185.284 131.172 184.68C118.373 176.583 115.991 165.894 116.247 158.352C116.511 150.582 119.597 144.776 119.948 144.14C120.996 142.24 122.961 141.167 124.986 141.166ZM124.987 140.493C122.645 140.493 120.488 141.765 119.358 143.814C118.999 144.465 115.842 150.403 115.573 158.329C115.311 166.046 117.742 176.98 130.812 185.249C131.841 185.9 133.027 186.244 134.24 186.244C136.457 186.244 138.488 185.127 139.672 183.256C141.596 180.214 139.709 176.051 136.812 174.218C123.865 166.027 128.138 154.602 130.577 150.07L130.623 149.984C132.306 146.896 131.168 142.995 128.083 141.293C127.134 140.77 126.064 140.493 124.987 140.493Z" fill="#020001"/>
<path d="M127.779 157.354C128.162 153.379 129.662 150.358 130.033 149.666C131.545 146.891 130.533 143.412 127.762 141.883C124.982 140.349 121.486 141.36 119.952 144.139C119.625 144.733 116.917 149.829 116.342 156.822C120.036 157.835 123.954 157.957 127.779 157.354Z" fill="#020001" stroke="#020001" stroke-miterlimit="10" stroke-linecap="round" stroke-linejoin="round"/>
<path d="M95.1389 188.818C95.0628 188.818 94.9873 188.792 94.9274 188.743C90.2814 184.984 84.202 178.091 81.6301 166.6C77.5035 148.167 87.8792 136.22 88.3232 135.721C89.4771 134.42 91.1369 133.674 92.8769 133.674C94.3656 133.674 95.799 134.219 96.9132 135.207C99.4029 137.415 99.6488 141.253 97.4595 143.761C97.188 144.079 90.7832 151.781 93.5054 163.94C94.4208 168.029 96.024 171.67 98.2705 174.759C98.3035 174.803 98.3244 174.856 98.3318 174.912C98.8115 178.442 98.5447 181.469 97.5188 184.166C96.8889 185.819 96.1129 187.353 95.4373 188.637C95.3908 188.727 95.3059 188.791 95.2069 188.811C95.184 188.816 95.1611 188.818 95.1389 188.818Z" fill="#8F1318"/>
<path d="M92.8765 134.009C94.2325 134.009 95.5946 134.486 96.6885 135.457C99.0523 137.553 99.2786 141.161 97.2045 143.537C96.863 143.938 90.4279 151.736 93.1756 164.012C94.2379 168.755 96.0897 172.331 97.9974 174.955C98.4164 178.043 98.3025 181.155 97.2025 184.045C96.6198 185.574 95.8984 187.035 95.1385 188.48C90.8469 185.009 84.564 178.167 81.9578 166.524C77.8709 148.273 88.1349 136.438 88.5741 135.943C89.7098 134.663 91.2894 134.009 92.8765 134.009ZM92.8765 133.335C91.0395 133.335 89.2881 134.122 88.0709 135.496C87.6229 136 77.138 148.077 81.3017 166.671C83.8951 178.258 90.0278 185.211 94.7162 189.003C94.8374 189.101 94.987 189.153 95.1399 189.153C95.185 189.153 95.2308 189.149 95.2759 189.139C95.4733 189.099 95.6424 188.971 95.736 188.793C96.4164 187.5 97.1971 185.954 97.8337 184.284C98.8812 181.535 99.1533 178.454 98.667 174.865C98.6521 174.755 98.6097 174.65 98.5444 174.559C96.3248 171.506 94.7404 167.908 93.8351 163.865C91.1507 151.874 97.4504 144.291 97.7198 143.973C100.024 141.334 99.7656 137.284 97.1372 134.953C95.9597 133.91 94.4467 133.335 92.8765 133.335Z" fill="#020001"/>
<path d="M97.2056 143.537C99.2797 141.161 99.0533 137.553 96.6896 135.457C94.3144 133.35 90.6816 133.567 88.5758 135.942C88.3003 136.253 84.1589 141.028 82.1191 149.05C85.2461 151.332 88.9773 152.885 92.8668 153.676C93.9345 147.496 96.9739 143.81 97.2056 143.537Z" fill="#020001" stroke="#020001" stroke-miterlimit="10" stroke-linecap="round" stroke-linejoin="round"/>
<path d="M160.698 35.696C161.108 33.921 157.533 31.1343 151.134 28.2417C144.4 25.1976 135.189 22.2492 125.197 19.938C114.323 17.4227 103.791 15.9804 96.3002 15.9804C90.369 15.9804 86.7537 16.902 86.3818 18.5086C86.3454 18.6642 86.2067 18.7692 86.0538 18.7692C86.0288 18.7692 86.0032 18.7665 85.9783 18.7605C85.7964 18.718 85.6833 18.5375 85.7257 18.3563L89.1881 3.38708C89.7715 0.865713 95.2608 0.336914 99.7627 0.336914C107.301 0.336914 117.889 1.78588 128.811 4.31129C138.844 6.63192 148.1 9.59585 154.873 12.6575C159.765 14.869 165.461 18.0902 164.816 20.8777L161.354 35.8476L160.698 35.696Z" fill="#FFFEFB"/>
<path d="M99.7626 0.673623C107.004 0.673623 117.399 2.01817 128.735 4.63991C149.438 9.42802 165.445 16.6641 164.488 20.8021L161.026 35.7721C161.983 31.634 145.976 24.3973 125.273 19.6098C113.934 16.9874 103.542 15.6442 96.3001 15.6442C90.319 15.6442 86.4868 16.5617 86.0537 18.4337L89.5154 3.46444C89.9486 1.59043 93.7788 0.673623 99.7626 0.673623ZM99.7626 0C93.0364 0 89.3679 1.11417 88.86 3.31153L85.3982 18.2808C85.3147 18.6432 85.5404 19.0049 85.9028 19.0891C85.954 19.1012 86.0052 19.1066 86.055 19.1066C86.3615 19.1066 86.6384 18.8958 86.7105 18.5846C86.9644 17.4886 89.6171 16.3172 96.3008 16.3172C103.766 16.3172 114.271 17.756 125.122 20.2659C135.093 22.5718 144.282 25.5135 150.995 28.5481C158.345 31.8704 160.657 34.3797 160.37 35.6198C160.286 35.9822 160.513 36.344 160.875 36.4282C160.926 36.4403 160.977 36.4457 161.027 36.4457C161.334 36.4457 161.611 36.2348 161.683 35.9236L165.145 20.9537C165.704 18.5374 162.295 15.6429 155.012 12.3502C148.22 9.27983 138.942 6.30847 128.887 3.98313C117.941 1.45165 107.325 0 99.7626 0Z" fill="#020001"/>
<path d="M150.78 38.899C143.24 38.899 132.652 37.4501 121.732 34.9247C111.698 32.604 102.442 29.6401 95.6693 26.5785C90.7774 24.367 85.0813 21.1457 85.7259 18.3583C86.3093 15.8369 91.7986 15.3081 96.3004 15.3081C103.839 15.3081 114.427 16.7571 125.348 19.2825C135.383 21.6031 144.638 24.567 151.411 27.6287C156.303 29.8402 161.999 33.0614 161.354 35.8489C160.771 38.3702 155.284 38.899 150.782 38.899C150.782 38.899 150.781 38.899 150.78 38.899Z" fill="#FFFEFB"/>
<path d="M96.3015 15.6429C103.543 15.6429 113.937 16.9867 125.274 19.6085C145.977 24.3966 161.984 31.6326 161.027 35.7707C160.594 37.6427 156.765 38.5602 150.781 38.5602C143.539 38.5602 133.144 37.2156 121.808 34.5939C101.105 29.8058 85.0978 22.5697 86.0551 18.4317C86.4889 16.5603 90.3191 15.6429 96.3015 15.6429ZM96.3015 14.9692C89.5754 14.9692 85.9075 16.0834 85.399 18.2801C84.8399 20.697 88.249 23.5916 95.5316 26.8836C102.324 29.954 111.602 32.9253 121.657 35.2513C132.602 37.7828 143.218 39.2345 150.781 39.2345C157.507 39.2345 161.175 38.1203 161.683 35.9229C162.907 30.6296 143.916 23.2285 125.426 18.9524C114.481 16.4209 103.865 14.9692 96.3015 14.9692Z" fill="#020001"/>
<path d="M139.593 149.256C139.421 149.224 139.305 149.063 139.329 148.889L139.36 148.669C139.484 145.684 127.852 139.746 108.801 135.34C99.4423 133.176 90.378 131.934 83.9335 131.934C78.8456 131.934 75.7469 132.717 75.431 134.082C75.396 134.233 75.2619 134.335 75.1124 134.335C75.0928 134.335 75.0726 134.333 75.0524 134.329C74.8806 134.297 74.7641 134.136 74.7883 133.963L90.6858 20.9213C91.1985 18.699 95.9415 18.2383 99.8303 18.2383C106.323 18.2383 115.44 19.4858 124.845 21.661C133.484 23.6589 141.455 26.2113 147.287 28.8478C151.511 30.7576 156.428 33.5423 155.867 35.966L140.011 148.731C140.004 148.825 139.992 148.916 139.97 149.007C139.935 149.158 139.801 149.261 139.651 149.261C139.633 149.262 139.613 149.26 139.593 149.256Z" fill="#F2686E"/>
<path d="M99.83 18.5665C106.064 18.5665 115.013 19.7238 124.771 21.9804C142.593 26.1023 156.373 32.3313 155.549 35.8941L139.685 148.7C139.877 145.104 126.309 139.055 108.873 135.022C99.1139 132.765 90.1662 131.608 83.9325 131.608C78.7826 131.608 75.4846 132.398 75.1121 134.01L91.0089 20.9686C91.3821 19.356 94.6788 18.5665 99.83 18.5665ZM139.686 148.7C139.681 148.78 139.67 148.859 139.652 148.935L139.686 148.7ZM99.83 17.9131C94.0004 17.9131 90.8189 18.8912 90.3723 20.8204C90.3683 20.8393 90.3642 20.8575 90.3622 20.877L74.4654 133.918C74.4169 134.265 74.6493 134.588 74.9935 134.652C75.0339 134.659 75.0737 134.663 75.1134 134.663C75.4118 134.663 75.6799 134.457 75.7493 134.156C75.9615 133.24 78.2222 132.261 83.9332 132.261C90.3541 132.261 99.3914 133.499 108.727 135.658C126.72 139.819 139.11 145.827 139.034 148.64L139.006 148.844C138.957 149.19 139.19 149.513 139.534 149.577C139.574 149.585 139.614 149.588 139.654 149.588C139.952 149.588 140.22 149.383 140.29 149.082C140.314 148.978 140.33 148.871 140.337 148.765L156.193 36.01C156.648 33.8968 153.698 31.3876 147.422 28.5509C141.571 25.9056 133.579 23.3459 124.919 21.3432C115.49 19.1633 106.346 17.9131 99.83 17.9131Z" fill="#020001"/>
<path d="M147.856 29.4731L134.15 126.941C133.574 131.033 129.072 133.273 125.468 131.254C120.207 128.307 112.369 124.939 102.033 122.548C92.329 120.304 83.4339 119.15 77.2049 119.137L75.1133 134.01C75.9371 130.448 91.0525 130.901 108.875 135.022C126.697 139.144 140.478 145.373 139.654 148.936L155.551 35.8948C155.945 34.1905 152.99 31.8753 147.856 29.4731Z" fill="#BF1920"/>
<path d="M124.774 21.9796C106.952 17.8577 91.8357 17.4043 91.0119 20.9671L90.7539 22.8007C97.7973 22.1163 110.125 23.4158 123.837 26.5872C137.602 29.7707 149.283 34.0354 155.29 37.7531L155.552 35.8933C156.376 32.3305 142.596 26.1015 124.774 21.9796Z" fill="#020001" stroke="#020001" stroke-miterlimit="10" stroke-linecap="round" stroke-linejoin="round"/>
<path d="M130.833 151.664C124.34 151.664 115.222 150.416 105.818 148.242C89.7997 144.537 73.8153 138.173 74.7948 133.936C75.3027 131.742 80.045 131.282 83.9338 131.282C90.4269 131.282 99.5444 132.529 108.949 134.704C124.968 138.409 140.951 144.773 139.972 149.009C139.465 151.203 134.722 151.664 130.833 151.664Z" fill="#BF1920"/>
<path d="M83.934 131.608C90.1677 131.608 99.1167 132.765 108.875 135.022C126.697 139.144 140.477 145.373 139.653 148.936C139.28 150.548 135.983 151.337 130.832 151.337C124.599 151.337 115.649 150.18 105.891 147.923C88.0693 143.801 74.289 137.572 75.1135 134.009C75.486 132.397 78.7828 131.608 83.934 131.608ZM83.934 130.955C78.1044 130.955 74.9229 131.933 74.4763 133.862C73.9859 135.981 76.935 138.501 83.2408 141.352C89.0919 143.997 97.0837 146.557 105.744 148.56C115.172 150.74 124.316 151.99 130.832 151.99C136.662 151.99 139.843 151.012 140.289 149.083C140.78 146.964 137.83 144.444 131.525 141.593C125.674 138.948 117.682 136.388 109.022 134.385C99.5943 132.205 90.4499 130.955 83.934 130.955Z" fill="#020001"/>
<path d="M108.876 135.022C91.0545 130.9 75.9384 130.446 75.1145 134.009C74.9751 134.611 75.2627 135.292 75.9074 136.023C80.3304 134.182 93.2639 135.071 108.075 138.497C122.884 141.922 134.892 146.801 138.061 150.396C138.96 150.022 139.516 149.537 139.654 148.936C140.479 145.373 126.699 139.143 108.876 135.022Z" fill="#020001" stroke="#020001" stroke-miterlimit="10" stroke-linecap="round" stroke-linejoin="round"/>
<path d="M137.969 99.3994C137.969 99.3994 139.465 110.659 141.861 113.427C144.257 116.196 145.241 111.187 145.241 111.187L146.12 102.949L137.969 99.3994Z" fill="#020001" stroke="#020001" stroke-miterlimit="10" stroke-linecap="round" stroke-linejoin="round"/>
<path d="M174.485 135.517C172.916 135.517 163.356 126.778 161.456 125.026C161.369 124.947 161.331 124.828 161.354 124.712C161.369 124.638 162.751 117.269 155.161 110.61C149.964 106.051 147.338 105.376 145.02 104.782C143.827 104.476 142.7 104.186 141.335 103.438C139.405 102.381 138.23 100.977 138.026 99.4867C137.549 95.9987 138.496 93.7515 141.293 91.7306C142.907 90.5646 144.73 89.9731 146.712 89.9731C147.006 89.9731 147.307 89.9859 147.617 90.0136C154.363 90.609 170.399 100.113 175.317 113.227C178.842 122.626 177.853 130.289 175.934 133.996C175.617 134.609 175.134 135.367 174.633 135.499C174.604 135.505 174.514 135.517 174.485 135.517Z" fill="#8F1318"/>
<path d="M146.71 90.3079C146.994 90.3079 147.286 90.3207 147.586 90.347C154.212 90.9317 170.128 100.352 175 113.344C179.873 126.337 175.78 134.846 174.546 135.171C174.527 135.176 174.507 135.179 174.484 135.179C172.967 135.179 161.683 124.777 161.683 124.777C161.683 124.777 163.223 117.235 155.382 110.356C147.54 103.477 145.523 105.35 141.496 103.141C139.902 102.267 138.572 101 138.359 99.4395C137.901 96.0936 138.751 93.9805 141.488 92.0021C142.8 91.0536 144.527 90.3079 146.71 90.3079ZM146.711 89.6343C144.656 89.6343 142.766 90.2473 141.093 91.4564C138.181 93.5615 137.195 95.901 137.691 99.5311C137.909 101.129 139.145 102.621 141.172 103.732C142.573 104.5 143.72 104.795 144.934 105.107C147.215 105.692 149.8 106.356 154.937 110.862C162.366 117.379 161.081 124.351 161.023 124.644C160.977 124.875 161.054 125.114 161.227 125.273C161.255 125.299 164.09 127.91 167.074 130.488C173.285 135.853 174.065 135.853 174.484 135.853C174.564 135.853 174.643 135.843 174.717 135.823C175.216 135.692 175.726 135.128 176.233 134.147C178.182 130.378 179.194 122.607 175.631 113.107C170.668 99.8706 154.464 90.2776 147.646 89.676C147.332 89.6484 147.017 89.6343 146.711 89.6343Z" fill="#020001"/>
<path d="M64.5293 201.477C61.4818 201.477 57.663 201.435 56.7745 201.239C55.4354 200.942 54.2356 199.638 53.6455 197.837C52.8695 195.468 53.3296 192.998 54.8762 191.229C57.6879 188.016 77.9364 177.465 81.5315 175.606C80.2644 174.794 77.0162 172.526 76.6336 170.402C76.5164 169.752 76.6666 169.166 77.0795 168.658C78.2819 167.181 80.5251 166.299 83.0802 166.299C85.1044 166.299 86.9979 166.854 88.4125 167.859C91.3468 169.948 90.1081 175.781 89.6945 177.403C89.6978 177.403 89.7012 177.403 89.7046 177.403C93.8925 177.403 95.6291 175.759 96.7783 174.671C97.4095 174.074 97.9072 173.602 98.5681 173.602C98.692 173.602 98.8193 173.62 98.946 173.655C100.26 174.016 101.104 176.588 101.457 181.299C101.969 188.144 101.189 198.98 99.0612 199.925C96.8032 200.929 75.0661 201.477 64.5293 201.477V201.477Z" fill="#F2686E"/>
<path d="M83.0808 166.626C84.9218 166.626 86.804 167.115 88.2239 168.126C91.4237 170.402 89.2701 177.724 89.2701 177.724C89.4183 177.728 89.5624 177.729 89.7052 177.729C96.1707 177.729 96.9709 173.929 98.5694 173.929C98.6631 173.929 98.7601 173.942 98.8605 173.97C102.45 174.958 101.698 198.396 98.9298 199.627C96.8726 200.541 76.1654 201.15 64.5246 201.15C60.5003 201.15 57.5573 201.077 56.8459 200.919C54.0774 200.304 52.1083 194.889 55.1235 191.444C58.1379 187.998 82.195 175.631 82.195 175.631C82.195 175.631 75.1813 171.509 77.3342 168.863C78.5319 167.393 80.775 166.626 83.0808 166.626ZM83.0808 165.972C80.4288 165.972 78.0906 166.899 76.8269 168.451C76.3581 169.027 76.1802 169.722 76.313 170.459C76.6787 172.493 79.3692 174.557 80.8835 175.574C76.2153 177.997 57.3687 187.885 54.6317 191.013C53.0076 192.869 52.5233 195.458 53.3364 197.938C53.9622 199.847 55.2528 201.234 56.7045 201.557C57.4401 201.721 60.0712 201.803 64.5246 201.803C75.0856 201.803 96.8962 201.246 99.1952 200.225C101.742 199.093 102.235 187.284 101.784 181.271C101.236 173.947 99.5785 173.49 99.0342 173.34C98.8793 173.298 98.723 173.276 98.5694 173.276C97.7779 173.276 97.2114 173.813 96.5546 174.434C95.4169 175.511 93.8723 176.972 90.1121 177.071C90.5924 174.989 91.4856 169.644 88.6032 167.594C87.134 166.548 85.1731 165.972 83.0808 165.972Z" fill="#020001"/>
<path d="M63.9366 189.657C63.746 189.657 63.5816 189.624 63.4341 189.558C62.8736 189.304 62.493 188.728 62.0511 188.06C61.8423 187.744 61.6274 187.419 61.3802 187.11C61.3216 187.037 61.2973 186.941 61.3135 186.848C61.3297 186.755 61.3856 186.674 61.4671 186.625C67.7372 182.856 76.6795 178.134 80.2329 176.28C80.5084 176.136 80.6795 175.877 80.703 175.568C80.726 175.261 80.5899 174.967 80.3386 174.783C78.7549 173.623 76.8237 171.9 76.6155 170.275C76.5387 169.674 76.6943 169.13 77.0803 168.656C78.2821 167.179 80.5252 166.297 83.0803 166.297C85.1052 166.297 86.9987 166.851 88.4133 167.857C91.7639 170.241 89.6737 177.506 89.5834 177.814C89.5706 177.998 89.0553 180.241 78.6788 183.904C73.5633 185.71 70.1305 187.234 67.8577 188.243C65.8086 189.155 64.6789 189.657 63.9366 189.657Z" fill="#F2686E"/>
<path d="M83.0793 166.626C84.9204 166.626 86.8025 167.115 88.2225 168.126C91.4222 170.402 89.2686 177.724 89.2686 177.724C89.2686 177.724 89.0503 179.899 78.5688 183.597C69.0256 186.966 65.3887 189.33 63.935 189.33C63.7922 189.33 63.6703 189.307 63.5659 189.26C62.8491 188.937 62.3904 187.852 61.6332 186.906C67.8562 183.166 76.6341 178.527 80.3822 176.571C81.1797 176.155 81.2558 175.053 80.5304 174.521C78.6065 173.113 75.877 170.651 77.332 168.864C78.5304 167.393 80.7735 166.626 83.0793 166.626ZM83.0793 165.972C80.4273 165.972 78.0892 166.899 76.8254 168.451C76.3869 168.989 76.2017 169.635 76.2899 170.318C76.4691 171.715 77.7665 173.307 80.1451 175.048C80.3748 175.216 80.3835 175.451 80.3761 175.545C80.3694 175.637 80.3263 175.863 80.0804 175.992C76.5263 177.847 67.582 182.568 61.2971 186.346C61.1354 186.443 61.0236 186.605 60.9906 186.79C60.9576 186.976 61.0061 187.167 61.124 187.314C61.3618 187.611 61.5733 187.931 61.7774 188.24C62.2274 188.921 62.6517 189.564 63.2984 189.855C63.4864 189.94 63.7006 189.983 63.9357 189.983C64.7467 189.983 65.8993 189.471 67.9909 188.543C70.2583 187.535 73.6843 186.014 78.787 184.213C88.467 180.797 89.7637 178.58 89.9072 177.87C90.0938 177.218 92.052 170.047 88.6024 167.593C87.1325 166.547 85.1716 165.972 83.0793 165.972Z" fill="#020001"/>
<path d="M123.299 204.24C122.205 204.24 121.185 204.213 120.288 204.19C119.588 204.173 118.965 204.157 118.439 204.157C116.217 204.157 110.776 203.826 108.239 200.76C107.116 199.402 106.739 197.698 107.121 195.695C108.277 189.627 117.936 178.634 119.27 177.138C118.944 176.312 117.849 173.161 119.406 171.398C119.928 170.806 121.264 170.518 123.489 170.518C127.82 170.518 134.337 171.656 135.324 172.179C135.567 172.307 135.738 172.528 135.819 172.818C136.122 173.902 135.114 175.981 134.552 177.017C135.625 176.736 137.227 175.888 137.859 175.522C137.91 175.493 137.966 175.479 138.022 175.479C138.121 175.479 138.219 175.524 138.283 175.608C143.782 182.866 141.125 194.634 141.01 195.132C139.162 203.295 130.017 204.24 123.299 204.24Z" fill="#F2686E"/>
<path d="M123.488 170.844C127.827 170.844 134.248 171.979 135.17 172.468C136.491 173.166 133.938 177.436 133.938 177.436C133.963 177.438 133.99 177.438 134.016 177.438C135.195 177.438 138.021 175.806 138.021 175.806C143.492 183.025 140.69 195.058 140.69 195.058C138.893 202.995 129.777 203.912 123.297 203.912C121.348 203.912 119.638 203.83 118.437 203.83C113.242 203.83 106.228 202.122 107.44 195.756C108.653 189.391 119.649 177.203 119.649 177.203C119.649 177.203 118.004 173.477 119.649 171.614C120.145 171.054 121.624 170.844 123.488 170.844ZM123.488 170.191C120.392 170.191 119.536 170.756 119.16 171.181C117.588 172.962 118.493 175.983 118.894 177.069C117.146 179.04 107.938 189.653 106.799 195.634C106.399 197.737 106.798 199.531 107.986 200.967C110.611 204.14 116.17 204.482 118.437 204.482C118.957 204.482 119.569 204.498 120.278 204.516C121.178 204.539 122.198 204.565 123.298 204.565C127.233 204.565 139.207 204.565 141.328 195.201C141.445 194.701 144.134 182.789 138.543 175.41C138.415 175.242 138.22 175.151 138.021 175.151C137.91 175.151 137.798 175.18 137.694 175.239C137.005 175.637 136.022 176.136 135.209 176.457C135.777 175.301 136.405 173.704 136.132 172.73C136.027 172.351 135.8 172.061 135.476 171.89C134.353 171.296 127.754 170.191 123.488 170.191Z" fill="#020001"/>
<path d="M126.332 189.095C126.308 189.095 126.274 189.092 126.252 189.086C125.903 189.009 118.222 188.082 114.759 188.082C114.411 188.082 114.11 188.092 113.868 188.113C113.858 188.114 113.848 188.114 113.839 188.114C113.719 188.114 113.608 188.048 113.55 187.941C113.488 187.826 113.502 187.685 113.584 187.583L120.411 179.094L119.368 177.372C119.278 177.175 117.639 173.395 119.403 171.398C119.925 170.806 121.261 170.518 123.486 170.518C127.817 170.518 134.334 171.656 135.321 172.179C135.564 172.307 135.735 172.528 135.816 172.818C136.206 174.215 134.422 177.261 134.216 177.603C134.204 177.624 134.189 177.644 134.172 177.662L131.401 180.538C127.062 189.095 126.569 189.095 126.332 189.095Z" fill="#F2686E"/>
<path d="M123.487 170.844C127.826 170.844 134.246 171.979 135.169 172.468C136.49 173.166 133.937 177.436 133.937 177.436L131.133 180.346C131.133 180.346 126.864 188.767 126.333 188.767C126.329 188.767 126.326 188.767 126.323 188.766C125.883 188.668 118.173 187.754 114.76 187.754C114.402 187.754 114.091 187.764 113.84 187.786L120.811 179.119L119.649 177.202C119.649 177.202 118.004 173.475 119.649 171.613C120.144 171.054 121.623 170.844 123.487 170.844ZM123.487 170.191C120.391 170.191 119.535 170.756 119.159 171.181C117.259 173.333 118.978 177.299 119.052 177.467C119.063 177.492 119.076 177.517 119.091 177.541L120.015 179.067L113.332 187.376C113.168 187.58 113.141 187.863 113.265 188.094C113.379 188.308 113.601 188.44 113.84 188.44C113.86 188.44 113.879 188.439 113.898 188.437C114.121 188.418 114.41 188.408 114.76 188.408C118.113 188.408 125.678 189.302 126.184 189.405C126.227 189.414 126.289 189.421 126.333 189.421C126.79 189.421 127.262 189.421 131.672 180.73L134.408 177.89C134.443 177.854 134.473 177.814 134.498 177.772C134.845 177.193 136.55 174.227 136.132 172.731C136.026 172.353 135.799 172.062 135.475 171.89C134.352 171.296 127.753 170.191 123.487 170.191Z" fill="#020001"/>
<path d="M135.492 85.0635C135.492 85.0635 135.479 88.6215 131.351 90.792C127.223 92.9624 123.936 90.3885 123.936 90.3885C123.936 90.3885 130.602 89.6711 135.492 85.0635Z" fill="#020001" stroke="#020001" stroke-miterlimit="10" stroke-linecap="round" stroke-linejoin="round"/>
<path d="M103.939 66.1546C104.07 66.2705 101.599 69.0855 103.985 70.3041C106.371 71.522 109.536 67.8447 110.181 66.9427C110.828 66.0401 103.939 66.1546 103.939 66.1546Z" fill="#020001" stroke="#020001" stroke-miterlimit="10" stroke-linecap="round" stroke-linejoin="round"/>
<path d="M139.662 53.3525C140.249 45.124 135.371 38.072 128.768 37.6013C122.165 37.1307 116.336 43.4195 115.749 51.648C115.163 59.8764 120.041 66.9284 126.644 67.3991C133.247 67.8698 139.076 61.5809 139.662 53.3525Z" fill="#FFFEFB" stroke="#020001" stroke-miterlimit="10" stroke-linecap="round" stroke-linejoin="round"/>
<path d="M110.506 52.5621C109.492 60.7487 103.919 66.7964 98.0598 66.0703C92.2 65.3441 88.2721 58.1188 89.2865 49.933C90.301 41.7465 95.8732 35.6987 101.733 36.4248C107.593 37.151 111.521 44.3756 110.506 52.5621Z" fill="#FFFEFB" stroke="#020001" stroke-miterlimit="10" stroke-linecap="round" stroke-linejoin="round"/>
<path d="M97.002 53.0632L104.658 54.0116C103.932 59.8796 99.8763 64.2804 95.6763 63.7596C91.4762 63.2389 88.6181 57.982 89.3456 52.1141C90.0724 46.2461 94.1276 41.8454 98.3277 42.3661C101.343 42.7399 103.781 45.5698 104.534 49.5691L97.002 53.0632Z" fill="#020001" stroke="#020001" stroke-miterlimit="10" stroke-linecap="round" stroke-linejoin="round"/>
<path d="M123.25 53.2818L130.906 54.2309C130.18 60.0988 126.124 64.4996 121.924 63.9789C117.724 63.4582 114.866 58.2012 115.594 52.3333C116.32 46.4654 120.376 42.0646 124.576 42.5853C127.592 42.9592 130.029 45.789 130.782 49.7883L123.25 53.2818Z" fill="#020001" stroke="#020001" stroke-miterlimit="10" stroke-linecap="round" stroke-linejoin="round"/>
<path d="M110.446 66.4634C110.446 66.4634 108.535 68.435 105.425 67.1174C102.315 65.7998 100.222 60.881 102.654 58.6749C105.085 56.4688 107.014 57.8545 109.013 60.3206C111.013 62.7867 112.918 61.7359 112.918 61.7359" fill="#F2686E"/>
<path d="M110.446 66.4634C110.446 66.4634 108.535 68.435 105.425 67.1174C102.315 65.7998 100.222 60.881 102.654 58.6749C105.085 56.4688 107.014 57.8545 109.013 60.3206C111.013 62.7867 112.918 61.7359 112.918 61.7359" stroke="#020001" stroke-width="0.9702" stroke-miterlimit="10" stroke-linecap="round" stroke-linejoin="round"/>
<path d="M124.363 69.6075C124.363 69.6075 130.829 58.0804 141.86 62.5331L124.363 69.6075Z" fill="#F2686E"/>
<path d="M124.363 69.6075C124.363 69.6075 130.829 58.0804 141.86 62.5331" stroke="#020001" stroke-miterlimit="10" stroke-linecap="round" stroke-linejoin="round"/>
<path d="M107.277 81.9581C107.277 81.9581 104.38 78.4014 107.069 75.9204C109.759 73.4401 115.962 78.7483 121.723 74.5718C127.485 70.396 130.339 64.4971 135.881 67.8834C141.423 71.2697 137.799 81.82 127.714 85.0898C117.63 88.3602 109.54 84.3528 107.277 81.9581Z" fill="#FFFEFB" stroke="#020001" stroke-miterlimit="10" stroke-linecap="round" stroke-linejoin="round"/>
<path d="M110.297 75.3203C110.297 75.3203 108.958 81.1189 109.697 83.7446" stroke="#020001" stroke-miterlimit="10" stroke-linecap="round" stroke-linejoin="round"/>
<path d="M116.026 76.2285C116.026 76.2285 115.516 82.7849 116.793 86.1469" stroke="#020001" stroke-miterlimit="10" stroke-linecap="round" stroke-linejoin="round"/>
<path d="M121.203 74.9245C121.264 74.8854 122.931 82.7284 125.778 85.6371" stroke="#020001" stroke-miterlimit="10" stroke-linecap="round" stroke-linejoin="round"/>
<path d="M125.605 71.2754C125.605 71.2754 131.785 78.6428 132.44 82.7566" stroke="#020001" stroke-miterlimit="10" stroke-linecap="round" stroke-linejoin="round"/>
<path d="M129.033 68.2859C129.085 68.2489 135.933 71.8696 137.668 76.5075" stroke="#020001" stroke-miterlimit="10" stroke-linecap="round" stroke-linejoin="round"/>
<path d="M138.493 64.933C138.493 64.933 139.603 63.3857 142.617 63.9347C145.631 64.4837 147.258 66.6562 145.906 67.8047C144.554 68.9526 135.757 67.5716 138.493 64.933Z" fill="#600D10"/>
<path d="M92.3652 70.8099C92.3652 70.8099 91.7973 69.109 94.5363 68.1033C97.2752 67.0976 98.9822 68.1821 98.6164 69.3522C98.2506 70.5229 96.4938 70.3801 95.5676 70.7378C94.6414 71.0955 92.4393 71.9988 92.3652 70.8099Z" fill="#600D10"/>
<path d="M121.422 90.5403C121.422 90.5403 132.384 90.9142 137.524 82.4185L121.422 90.5403Z" fill="#F2686E"/>
<path d="M121.422 90.5403C121.422 90.5403 132.384 90.9142 137.524 82.4185" stroke="#020001" stroke-miterlimit="10" stroke-linecap="round" stroke-linejoin="round"/>
<path d="M103.89 29.9728C103.575 30.9779 103.717 32.2018 104.513 32.8923C105.092 33.3955 105.891 33.5302 106.622 33.7633C107.871 34.1614 109.01 34.9011 109.882 35.8805C110.407 36.4706 110.927 37.1994 111.712 37.2964C112.771 37.4271 113.568 36.3096 113.806 35.2695C114.172 33.6676 113.831 31.9721 113.184 30.4612C112.535 28.9449 111.511 27.502 110.014 26.8088C107.443 25.6172 104.675 27.469 103.89 29.9728Z" fill="#600D10"/>
<path d="M105.834 58.8615C106.523 59.1546 107.021 59.7696 107.415 60.4055C107.535 60.5975 107.648 60.7989 107.688 61.0218C107.726 61.2448 107.676 61.4947 107.508 61.6456C107.291 61.8416 106.947 61.8147 106.68 61.6948C106.412 61.5749 106.186 61.3782 105.923 61.2495C105.539 61.0623 105.1 61.0306 104.68 60.9538C104.259 60.877 103.82 60.7342 103.556 60.3974C102.592 59.166 105.028 58.518 105.834 58.8615Z" fill="#600D10"/>
<path d="M90.8496 15.9847L94.0743 0.943359" stroke="#020001" stroke-miterlimit="10" stroke-linecap="round" stroke-linejoin="round"/>
<path d="M97.6602 15.6589L100.09 0.674805" stroke="#020001" stroke-miterlimit="10" stroke-linecap="round" stroke-linejoin="round"/>
<path d="M104.369 16.0749L106.816 1.0127" stroke="#020001" stroke-miterlimit="10" stroke-linecap="round" stroke-linejoin="round"/>
<path d="M111.246 16.9251L113.718 1.81104" stroke="#020001" stroke-miterlimit="10" stroke-linecap="round" stroke-linejoin="round"/>
<path d="M117.621 18.0037L120.408 2.90918" stroke="#020001" stroke-miterlimit="10" stroke-linecap="round" stroke-linejoin="round"/>
<path d="M123.85 19.2856L127.361 4.32715" stroke="#020001" stroke-miterlimit="10" stroke-linecap="round" stroke-linejoin="round"/>
<path d="M129.408 20.4339L133.286 5.75098" stroke="#020001" stroke-miterlimit="10" stroke-linecap="round" stroke-linejoin="round"/>
<path d="M133.922 21.8234L138.613 7.20508" stroke="#020001" stroke-miterlimit="10" stroke-linecap="round" stroke-linejoin="round"/>
<path d="M51.2019 102.501C51.2019 102.501 46.151 106.592 37.7269 105.603C29.3021 104.615 18.8919 97.8435 13.5572 96.5874C8.22245 95.3313 0.895101 97.6961 1.03986 92.5325C1.18461 87.3689 13.233 85.8145 20.598 87.9941C20.598 87.9941 26.5822 86.041 32.3658 88.3742C38.15 90.7074 40.6376 87.1244 47.8509 89.544C55.0643 91.9643 54.1304 100.38 51.2019 102.501Z" fill="#FFFEFB" stroke="#020001" stroke-miterlimit="10" stroke-linecap="round" stroke-linejoin="round"/>
<path d="M20.5962 87.997C20.5962 87.997 18.6587 88.9451 19.2542 91.6353C19.8498 94.3255 28.5454 95.0797 30.5331 96.2537C32.5208 97.4277 38.604 100.936 42.8168 100.721" stroke="#020001" stroke-miterlimit="10" stroke-linecap="round" stroke-linejoin="round"/>
<path d="M52.3189 90.8579C52.3189 90.8579 48.5621 89.8887 47.3884 97.7768C46.2148 105.665 49.5331 107.292 52.4359 107.16C55.3387 107.027 55.9523 101.91 56.4905 98.5106C57.0286 95.1107 56.1356 90.8435 52.3189 90.8579Z" fill="#FFFEFB" stroke="#020001" stroke-miterlimit="10" stroke-linecap="round" stroke-linejoin="round"/>
<path d="M83.2588 129.01C80.9975 129.01 78.9867 127.578 78.2545 125.449C77.3074 122.696 78.7759 119.685 81.5289 118.738L94.6498 114.224C95.2015 114.034 95.7761 113.938 96.3561 113.938C98.6167 113.938 100.628 115.369 101.36 117.5C101.818 118.828 101.728 120.259 101.107 121.53C100.487 122.801 99.4136 123.753 98.0859 124.21L84.9651 128.724C84.4134 128.913 83.8388 129.01 83.2588 129.01Z" fill="#F2686E"/>
<path d="M96.3578 114.274C98.411 114.274 100.341 115.565 101.044 117.608C101.928 120.179 100.548 123.006 97.9772 123.891L84.8564 128.405C84.3289 128.587 83.79 128.673 83.2592 128.673C81.206 128.673 79.2761 127.382 78.5735 125.338C77.689 122.767 79.0693 119.94 81.6398 119.056L94.7606 114.542C95.2888 114.36 95.8277 114.274 96.3578 114.274ZM96.3578 113.601C95.7394 113.601 95.1284 113.703 94.5417 113.905L81.4209 118.419C78.492 119.427 76.9292 122.629 77.9369 125.558C78.7163 127.824 80.8557 129.347 83.2599 129.347C83.8776 129.347 84.4886 129.244 85.076 129.042L98.1968 124.528C99.61 124.042 100.753 123.029 101.412 121.678C102.071 120.326 102.167 118.803 101.681 117.39C100.901 115.123 98.762 113.601 96.3578 113.601Z" fill="#020001"/>
<path d="M101.046 117.608C100.295 115.426 98.1444 114.107 95.9383 114.298C96.131 114.607 96.2953 114.94 96.4186 115.298C97.3031 117.87 95.9235 120.697 93.3523 121.581L80.2315 126.095C79.8428 126.229 79.4494 126.305 79.0566 126.339C80.2469 128.248 82.6464 129.166 84.8586 128.405L97.9794 123.891C100.551 123.007 101.931 120.179 101.046 117.608Z" fill="#BF1920"/>
<path d="M100.922 117.283C100.899 117.229 100.875 117.174 100.85 117.121C100.836 117.091 100.821 117.063 100.807 117.034C100.783 116.985 100.759 116.937 100.733 116.889C100.718 116.86 100.701 116.831 100.685 116.802C100.658 116.756 100.632 116.71 100.604 116.664C100.588 116.636 100.57 116.608 100.553 116.582C100.524 116.536 100.495 116.491 100.464 116.446C100.447 116.421 100.429 116.395 100.411 116.37C100.379 116.325 100.346 116.28 100.313 116.237C100.296 116.214 100.278 116.191 100.26 116.168C100.225 116.122 100.188 116.078 100.15 116.034C100.134 116.014 100.117 115.994 100.1 115.975C100.059 115.929 100.017 115.883 99.9746 115.838C99.9598 115.822 99.9457 115.807 99.9309 115.791C99.883 115.742 99.8339 115.694 99.784 115.647C99.7739 115.637 99.7638 115.627 99.7537 115.617C99.6944 115.562 99.6345 115.508 99.5732 115.457C99.5712 115.455 99.5698 115.454 99.5684 115.452C99.1737 115.119 98.7298 114.85 98.2542 114.654C98.7803 115.172 99.198 115.814 99.4533 116.556C100.338 119.127 98.9581 121.954 96.3869 122.839L91.5059 124.518C92.3129 125.374 92.9643 125.62 92.9643 125.62L97.9821 123.893C100.553 123.009 101.933 120.181 101.048 117.61C101.019 117.527 100.988 117.444 100.955 117.363C100.945 117.335 100.933 117.309 100.922 117.283Z" fill="#BF1920"/>
<path d="M92.9601 125.954C92.9197 125.954 92.88 125.947 92.8416 125.933C92.75 125.898 90.5917 125.05 89.2236 121.268C88.5358 119.369 88.4105 117.717 88.8517 116.361C88.8847 116.261 88.9622 116.18 89.0626 116.147L94.6523 114.224C95.204 114.034 95.7786 113.938 96.3586 113.938C98.6193 113.938 100.631 115.369 101.363 117.5C101.82 118.828 101.731 120.26 101.11 121.53C100.489 122.802 99.4161 123.753 98.0884 124.21L93.0706 125.937C93.0342 125.949 92.9972 125.954 92.9601 125.954Z" fill="#F2686E"/>
<path d="M96.3598 114.275C98.413 114.275 100.343 115.566 101.045 117.608C101.93 120.18 100.55 123.007 97.9792 123.891L92.9613 125.618C92.9613 125.618 90.8724 124.834 89.5407 121.154C88.7222 118.893 88.8731 117.388 89.1729 116.465L94.7619 114.543C95.2907 114.361 95.8296 114.275 96.3598 114.275ZM96.3598 113.601C95.7421 113.601 95.1311 113.703 94.5437 113.906L88.954 115.828C88.7539 115.897 88.5976 116.056 88.5323 116.257C88.0675 117.687 88.1935 119.411 88.9068 121.383C90.3686 125.422 92.7242 126.248 92.7478 126.256C92.8172 126.279 92.8893 126.29 92.9607 126.29C93.0348 126.29 93.1089 126.278 93.1796 126.254L98.1974 124.527C99.6107 124.041 100.753 123.028 101.413 121.677C102.072 120.325 102.168 118.802 101.681 117.389C100.903 115.123 98.7639 113.601 96.3598 113.601Z" fill="#020001"/>
<path d="M101.046 117.609C100.96 117.361 100.852 117.128 100.732 116.903C100.713 116.866 100.695 116.828 100.674 116.792C100.554 116.579 100.418 116.378 100.271 116.189C100.246 116.156 100.22 116.125 100.193 116.094C100.035 115.902 99.8667 115.719 99.6835 115.554C99.6801 115.551 99.6767 115.549 99.6734 115.545C99.48 115.373 99.2726 115.217 99.0557 115.077C99.0462 115.071 99.0368 115.064 99.0274 115.058C98.8098 114.92 98.5814 114.8 98.3457 114.697C98.3315 114.691 98.3174 114.685 98.3039 114.678C97.569 114.366 96.7573 114.227 95.9381 114.298C96.1308 114.607 96.2952 114.94 96.4184 115.298C97.3029 117.869 95.9233 120.697 93.3521 121.581L90.209 122.662C91.474 125.05 92.9621 125.617 92.9621 125.617L97.9799 123.89C100.55 123.007 101.93 120.18 101.046 117.609Z" fill="#BF1920"/>
<path d="M80.6495 121.154C80.4844 121.499 80.3908 121.945 80.636 122.238C80.8684 122.515 81.2907 122.52 81.6491 122.466C82.285 122.37 82.9027 122.159 83.4652 121.847C83.8505 121.632 84.2197 121.362 84.4487 120.985C85.1513 119.831 84.0694 119.062 83.0078 119.3C82.0014 119.525 81.0967 120.221 80.6495 121.154Z" fill="#600D10"/>
<path d="M90.5343 117.345C90.2069 117.616 89.895 118.037 90.0513 118.433C90.2089 118.832 90.7411 118.924 91.1635 118.846C91.7178 118.743 92.2204 118.462 92.7101 118.183C92.962 118.039 93.2173 117.892 93.4181 117.682C93.6188 117.473 93.7603 117.189 93.734 116.9C93.604 115.476 91.0388 116.926 90.5343 117.345Z" fill="#600D10"/>
<path d="M122.913 120.134C122.057 120.134 121.205 119.922 120.448 119.519L108.198 113.004C106.957 112.344 106.047 111.236 105.633 109.883C105.22 108.53 105.356 107.102 106.015 105.862C106.933 104.136 108.725 103.064 110.691 103.064C111.548 103.064 112.399 103.277 113.156 103.679L125.406 110.195C127.977 111.562 128.956 114.767 127.588 117.337C126.672 119.062 124.88 120.134 122.913 120.134Z" fill="#F2686E"/>
<path d="M110.689 103.401C111.471 103.401 112.261 103.586 112.996 103.977L125.246 110.493C127.647 111.77 128.566 114.779 127.289 117.179C126.403 118.845 124.682 119.798 122.91 119.798C122.129 119.798 121.338 119.613 120.604 119.223L108.353 112.707C105.953 111.43 105.033 108.421 106.31 106.021C107.196 104.354 108.917 103.401 110.689 103.401ZM110.689 102.728C108.597 102.728 106.691 103.868 105.715 105.704C105.013 107.023 104.868 108.542 105.308 109.981C105.748 111.42 106.717 112.599 108.036 113.301L120.287 119.817C121.092 120.245 121.999 120.471 122.91 120.471C125.002 120.471 126.907 119.331 127.884 117.495C128.586 116.176 128.731 114.657 128.291 113.218C127.851 111.78 126.882 110.601 125.563 109.898L113.312 103.382C112.507 102.954 111.6 102.728 110.689 102.728Z" fill="#020001"/>
<path d="M127.291 117.178C128.375 115.141 127.872 112.669 126.228 111.186C126.133 111.538 126.002 111.885 125.824 112.219C124.548 114.62 121.539 115.539 119.139 114.262L106.888 107.746C106.526 107.554 106.201 107.317 105.909 107.053C105.325 109.226 106.289 111.607 108.355 112.706L120.606 119.222C123.006 120.498 126.014 119.579 127.291 117.178Z" fill="#BF1920"/>
<path d="M127.44 116.863C127.464 116.808 127.488 116.754 127.51 116.7C127.522 116.669 127.533 116.639 127.544 116.609C127.564 116.557 127.583 116.506 127.6 116.455C127.611 116.423 127.621 116.392 127.631 116.361C127.647 116.309 127.663 116.259 127.677 116.208C127.686 116.176 127.694 116.145 127.702 116.113C127.715 116.062 127.729 116.009 127.74 115.957C127.747 115.926 127.754 115.896 127.76 115.866C127.771 115.812 127.782 115.757 127.791 115.703C127.796 115.674 127.8 115.645 127.805 115.617C127.814 115.56 127.822 115.503 127.828 115.445C127.831 115.42 127.834 115.394 127.837 115.368C127.843 115.306 127.848 115.245 127.852 115.183C127.853 115.162 127.854 115.141 127.856 115.119C127.859 115.05 127.861 114.982 127.862 114.913C127.862 114.899 127.862 114.885 127.862 114.871C127.862 114.79 127.86 114.709 127.856 114.629C127.856 114.627 127.856 114.624 127.856 114.622C127.83 114.106 127.724 113.598 127.544 113.117C127.524 113.855 127.34 114.598 126.971 115.291C125.695 117.692 122.686 118.611 120.285 117.334L115.728 114.91C115.653 116.085 115.918 116.728 115.918 116.728L120.603 119.22C123.004 120.496 126.012 119.577 127.288 117.176C127.33 117.098 127.369 117.019 127.406 116.939C127.418 116.914 127.429 116.888 127.44 116.863Z" fill="#BF1920"/>
<path d="M122.914 120.135C122.058 120.135 121.206 119.923 120.45 119.52L115.765 117.029C115.694 116.991 115.639 116.93 115.61 116.856C115.573 116.764 114.739 114.579 116.553 111.032C117.474 109.233 118.596 108.016 119.89 107.413C119.934 107.392 119.983 107.381 120.032 107.381C120.087 107.381 120.14 107.395 120.19 107.421L125.408 110.196C127.979 111.563 128.958 114.768 127.59 117.338C126.673 119.063 124.881 120.135 122.914 120.135Z" fill="#F2686E"/>
<path d="M120.031 107.718L125.249 110.494C127.649 111.771 128.569 114.78 127.292 117.18C126.406 118.846 124.685 119.799 122.913 119.799C122.132 119.799 121.341 119.614 120.606 119.224L115.921 116.732C115.921 116.732 115.07 114.669 116.852 111.186C117.948 109.044 119.152 108.128 120.031 107.718ZM120.031 107.044C119.934 107.044 119.837 107.065 119.746 107.108C118.383 107.743 117.207 109.012 116.252 110.879C114.279 114.735 115.308 117.011 115.319 117.032C115.381 117.158 115.481 117.26 115.605 117.326L120.29 119.818C121.095 120.246 122.002 120.472 122.913 120.472C125.005 120.472 126.91 119.332 127.887 117.496C129.341 114.762 128.3 111.354 125.566 109.899L120.347 107.123C120.248 107.071 120.14 107.044 120.031 107.044Z" fill="#020001"/>
<path d="M127.29 117.179C127.413 116.947 127.51 116.709 127.592 116.468C127.606 116.429 127.621 116.39 127.634 116.35C127.708 116.117 127.763 115.881 127.8 115.644C127.807 115.603 127.811 115.563 127.817 115.523C127.849 115.276 127.868 115.028 127.863 114.782C127.863 114.777 127.863 114.773 127.863 114.768C127.857 114.509 127.83 114.252 127.784 113.998C127.782 113.986 127.78 113.975 127.778 113.964C127.731 113.711 127.663 113.462 127.578 113.219C127.572 113.205 127.568 113.19 127.562 113.176C127.289 112.425 126.837 111.737 126.227 111.187C126.133 111.538 126.001 111.886 125.824 112.22C124.547 114.621 121.538 115.539 119.138 114.263L116.203 112.702C115.32 115.256 115.92 116.73 115.92 116.73L120.605 119.222C123.004 120.499 126.013 119.579 127.29 117.179Z" fill="#BF1920"/>
<path d="M110.781 104.68C110.416 104.795 110.026 105.031 109.979 105.41C109.935 105.77 110.219 106.081 110.503 106.306C111.008 106.705 111.583 107.013 112.195 107.211C112.614 107.347 113.064 107.431 113.496 107.343C114.819 107.07 114.643 105.753 113.745 105.139C112.894 104.558 111.768 104.37 110.781 104.68Z" fill="#600D10"/>
<path d="M120.314 109.312C119.893 109.258 119.372 109.316 119.189 109.7C119.005 110.088 119.301 110.54 119.646 110.795C120.099 111.13 120.647 111.306 121.185 111.474C121.462 111.56 121.745 111.646 122.034 111.65C122.325 111.653 122.628 111.563 122.822 111.347C123.775 110.282 120.965 109.395 120.314 109.312Z" fill="#600D10"/>
<path d="M94.9513 107.205C92.9008 107.205 91.018 106.01 90.1544 104.164L84.2744 91.5962C83.041 88.9589 84.1827 85.8098 86.8193 84.5757C87.5212 84.247 88.2689 84.0806 89.0429 84.0806C91.0927 84.0806 92.9762 85.2736 93.8398 87.1206L99.7198 99.6884C100.953 102.326 99.8115 105.476 97.1749 106.709C96.4723 107.037 95.7239 107.205 94.9513 107.205Z" fill="#F2686E"/>
<path d="M89.0398 84.4173C90.9023 84.4173 92.6942 85.4728 93.5315 87.2633L99.4115 99.8318C100.563 102.295 99.4917 105.252 97.0289 106.404C96.3566 106.719 95.648 106.868 94.9488 106.868C93.0862 106.868 91.2944 105.812 90.4564 104.022L84.5763 91.4533C83.4244 88.9905 84.4962 86.0333 86.9589 84.8807C87.6312 84.5661 88.3405 84.4173 89.0398 84.4173ZM89.0398 83.7437C88.2166 83.7437 87.421 83.9208 86.674 84.2704C83.8684 85.5826 82.6538 88.9332 83.9667 91.7382L89.8468 104.307C90.7663 106.272 92.7689 107.541 94.9488 107.541C95.7713 107.541 96.5675 107.364 97.3145 107.014C100.12 105.702 101.335 102.351 100.022 99.5462L94.1418 86.9777C93.2223 85.0128 91.2196 83.7437 89.0398 83.7437Z" fill="#020001"/>
<path d="M97.026 106.405C99.117 105.427 100.199 103.148 99.7758 100.975C99.4888 101.2 99.1756 101.398 98.832 101.559C96.3692 102.712 93.4121 101.639 92.2595 99.1767L86.3794 86.6083C86.2056 86.2364 86.0884 85.8525 86.013 85.4658C84.2413 86.8521 83.5825 89.3351 84.5734 91.4543L90.4535 104.023C91.6061 106.486 94.5633 107.557 97.026 106.405Z" fill="#BF1920"/>
<path d="M97.336 106.245C97.3878 106.216 97.4397 106.187 97.4902 106.157C97.5178 106.14 97.5448 106.122 97.5724 106.105C97.6182 106.076 97.6647 106.046 97.7092 106.016C97.7368 105.997 97.7631 105.978 97.79 105.959C97.8338 105.928 97.8769 105.897 97.9193 105.865C97.9449 105.845 97.9705 105.825 97.9961 105.805C98.0386 105.771 98.0803 105.737 98.1214 105.703C98.145 105.683 98.1686 105.662 98.1915 105.642C98.2332 105.605 98.2737 105.568 98.3141 105.53C98.335 105.51 98.3558 105.49 98.3767 105.47C98.4178 105.429 98.4589 105.388 98.4986 105.347C98.5162 105.328 98.5344 105.309 98.5519 105.29C98.5936 105.244 98.6347 105.198 98.6751 105.151C98.6893 105.135 98.7028 105.119 98.7169 105.103C98.7607 105.049 98.8038 104.996 98.8456 104.941C98.8543 104.93 98.8631 104.919 98.8718 104.907C98.9203 104.843 98.9675 104.777 99.0126 104.711C99.014 104.709 99.0153 104.707 99.0167 104.705C99.3057 104.277 99.5259 103.807 99.6707 103.314C99.212 103.892 98.6179 104.376 97.9072 104.708C95.4444 105.86 92.4872 104.788 91.3347 102.325L89.1474 97.6504C88.3815 98.5436 88.207 99.2172 88.207 99.2172L90.4556 104.024C91.6075 106.486 94.5654 107.559 97.0281 106.406C97.1083 106.368 97.1871 106.329 97.2646 106.288C97.2875 106.273 97.3117 106.259 97.336 106.245Z" fill="#BF1920"/>
<path d="M94.95 107.204C92.8995 107.203 91.0168 106.01 90.1532 104.163L87.9046 99.3571C87.8716 99.2864 87.8642 99.2056 87.8837 99.1301C87.908 99.0358 88.5223 96.7987 92.1377 95.0372C93.4964 94.375 94.7628 94.0396 95.9032 94.0396C96.2757 94.0396 96.6375 94.0759 96.9783 94.1473C97.0814 94.1689 97.169 94.2383 97.2141 94.3339L99.7193 99.6879C100.953 102.325 99.8109 105.475 97.1744 106.708C96.4711 107.036 95.7227 107.204 94.95 107.204Z" fill="#F2686E"/>
<path d="M95.9003 94.3763C96.2876 94.3763 96.6217 94.4173 96.906 94.4773L99.4105 99.8312C100.562 102.294 99.4907 105.251 97.0279 106.404C96.3556 106.718 95.647 106.867 94.9478 106.867C93.0852 106.867 91.2934 105.812 90.4554 104.021L88.2068 99.2149C88.2068 99.2149 88.7653 97.0546 92.2823 95.3402C93.7972 94.6019 94.9936 94.3763 95.9003 94.3763ZM95.9003 93.7026C94.7086 93.7026 93.3924 94.0502 91.9872 94.7346C88.3543 96.5056 87.5332 98.8559 87.5332 99.2149C87.5332 99.3132 87.5548 99.4109 87.5965 99.5005L89.8451 104.307C90.7646 106.272 92.7673 107.541 94.9471 107.541C95.7696 107.541 96.5658 107.364 97.3129 107.014C100.118 105.702 101.333 102.351 100.02 99.5463L97.5149 94.1924C97.4253 94.001 97.2509 93.8623 97.0441 93.8185C96.6817 93.7417 96.2964 93.7026 95.9003 93.7026Z" fill="#020001"/>
<path d="M97.0255 106.403C97.2633 106.292 97.4836 106.16 97.6944 106.017C97.7288 105.993 97.7645 105.971 97.7988 105.947C97.9975 105.805 98.1834 105.649 98.3559 105.482C98.3855 105.454 98.4131 105.424 98.4421 105.395C98.6166 105.217 98.7803 105.031 98.9244 104.831C98.9271 104.827 98.9292 104.823 98.9319 104.819C99.0827 104.608 99.2161 104.386 99.332 104.156C99.3374 104.146 99.3427 104.135 99.3481 104.125C99.462 103.894 99.5576 103.654 99.6351 103.409C99.6398 103.394 99.6445 103.38 99.6486 103.365C99.881 102.601 99.9335 101.78 99.7759 100.973C99.4889 101.197 99.1757 101.396 98.8321 101.557C96.3694 102.709 93.4122 101.637 92.2596 99.1742L90.8511 96.1631C88.6106 97.674 88.2051 99.2139 88.2051 99.2139L90.4536 104.02C91.6055 106.484 94.5627 107.555 97.0255 106.403Z" fill="#BF1920"/>
<path d="M91.3397 86.495C90.9793 86.367 90.5259 86.3219 90.2605 86.5967C90.0093 86.8574 90.049 87.2777 90.1413 87.628C90.305 88.2498 90.5798 88.8419 90.9496 89.368C91.2029 89.7284 91.5121 90.0665 91.9109 90.2545C93.1328 90.8311 93.7829 89.6738 93.4333 88.6425C93.1025 87.6664 92.3144 86.8406 91.3397 86.495Z" fill="#600D10"/>
<path d="M96.1703 95.9224C95.8659 95.626 95.4138 95.3599 95.0373 95.5573C94.6567 95.7567 94.6223 96.2949 94.7449 96.7071C94.9053 97.2474 95.238 97.7176 95.5681 98.1743C95.7379 98.4094 95.9117 98.6479 96.1414 98.825C96.3711 99.0022 96.6681 99.1133 96.9524 99.0567C98.3542 98.7765 96.6398 96.3798 96.1703 95.9224Z" fill="#600D10"/>
<path d="M119.864 106.006C119.528 106.006 119.19 105.973 118.859 105.909L105.239 103.257C103.86 102.988 102.665 102.195 101.875 101.022C101.084 99.8493 100.796 98.4441 101.065 97.0652C101.547 94.5903 103.728 92.7944 106.252 92.7944C106.587 92.7944 106.925 92.8268 107.257 92.8908L120.877 95.5428C122.256 95.8109 123.45 96.6051 124.241 97.7772C125.032 98.95 125.319 100.355 125.051 101.735C124.569 104.21 122.388 106.006 119.864 106.006Z" fill="#F2686E"/>
<path d="M106.253 93.1292C106.563 93.1292 106.878 93.1588 107.194 93.2201L120.814 95.8715C123.483 96.3909 125.241 98.9998 124.721 101.669C124.263 104.022 122.181 105.667 119.865 105.667C119.555 105.667 119.24 105.638 118.924 105.576L105.304 102.924C102.635 102.405 100.877 99.796 101.397 97.1271C101.855 94.7748 103.937 93.1292 106.253 93.1292ZM106.253 92.4556C103.568 92.4556 101.248 94.3666 100.735 96.9991C100.143 100.039 102.135 102.994 105.175 103.586L118.795 106.238C119.147 106.307 119.508 106.342 119.865 106.342C122.549 106.342 124.87 104.431 125.382 101.798C125.668 100.331 125.362 98.8354 124.521 97.5886C123.681 96.341 122.41 95.497 120.942 95.2114L107.322 92.5593C106.969 92.4906 106.61 92.4556 106.253 92.4556Z" fill="#020001"/>
<path d="M124.72 101.67C125.161 99.4036 123.957 97.1867 121.951 96.249C121.963 96.6135 121.94 96.9833 121.867 97.3558C121.347 100.025 118.739 101.783 116.07 101.263L102.45 98.6114C102.047 98.5326 101.668 98.4019 101.311 98.2349C101.387 100.483 103.005 102.478 105.302 102.925L118.922 105.577C121.591 106.097 124.2 104.338 124.72 101.67Z" fill="#BF1920"/>
<path d="M124.776 101.324C124.783 101.265 124.79 101.206 124.796 101.147C124.798 101.115 124.8 101.083 124.802 101.05C124.805 100.996 124.809 100.941 124.81 100.887C124.812 100.854 124.811 100.821 124.812 100.788C124.812 100.735 124.813 100.681 124.812 100.628C124.811 100.595 124.81 100.563 124.808 100.53C124.806 100.476 124.804 100.422 124.8 100.369C124.798 100.338 124.794 100.307 124.792 100.276C124.786 100.221 124.781 100.166 124.773 100.112C124.77 100.083 124.766 100.055 124.762 100.026C124.754 99.9684 124.744 99.9111 124.734 99.8545C124.729 99.8289 124.724 99.804 124.719 99.7784C124.707 99.7178 124.694 99.6571 124.68 99.5972C124.675 99.5763 124.67 99.5554 124.665 99.5352C124.648 99.4685 124.63 99.4018 124.61 99.3365C124.606 99.323 124.603 99.3095 124.599 99.2961C124.575 99.2186 124.55 99.1425 124.523 99.0664C124.522 99.0643 124.521 99.0623 124.521 99.0603C124.345 98.5746 124.095 98.1199 123.782 97.7124C123.979 98.4237 124.019 99.1883 123.869 99.9589C123.35 102.628 120.741 104.386 118.072 103.867L113.006 102.88C113.277 104.026 113.718 104.563 113.718 104.563L118.926 105.577C121.595 106.096 124.203 104.338 124.724 101.669C124.74 101.582 124.755 101.495 124.767 101.409C124.77 101.38 124.773 101.351 124.776 101.324Z" fill="#BF1920"/>
<path d="M119.866 106.005C119.531 106.005 119.193 105.973 118.861 105.908L113.654 104.894C113.578 104.879 113.509 104.838 113.46 104.778C113.445 104.761 111.945 102.914 112.656 98.9273C113.01 96.9381 113.728 95.446 114.789 94.4915C114.851 94.4356 114.932 94.4053 115.014 94.4053C115.036 94.4053 115.057 94.4073 115.079 94.4113L120.88 95.5417C122.259 95.8098 123.453 96.604 124.244 97.7761C125.035 98.9489 125.323 100.354 125.054 101.734C124.572 104.208 122.391 106.004 119.868 106.004L119.866 106.005Z" fill="#F2686E"/>
<path d="M115.011 94.742L120.813 95.8716C123.482 96.391 125.24 98.9999 124.721 101.669C124.263 104.022 122.181 105.667 119.865 105.667C119.554 105.667 119.24 105.638 118.924 105.577L113.715 104.563C113.715 104.563 112.299 102.839 112.985 98.9872C113.407 96.6187 114.29 95.3907 115.011 94.742ZM115.011 94.0684C114.846 94.0684 114.685 94.129 114.561 94.2415C113.443 95.2472 112.69 96.8039 112.321 98.8686C111.591 102.967 113.127 104.908 113.193 104.988C113.293 105.11 113.432 105.194 113.586 105.224L118.795 106.238C119.147 106.307 119.508 106.342 119.865 106.342C122.549 106.342 124.87 104.431 125.382 101.798C125.668 100.331 125.362 98.8356 124.521 97.5887C123.681 96.3412 122.41 95.4971 120.942 95.2115L115.141 94.0818C115.097 94.0724 115.054 94.0684 115.011 94.0684Z" fill="#020001"/>
<path d="M124.721 101.668C124.771 101.411 124.794 101.154 124.803 100.9C124.804 100.859 124.807 100.817 124.807 100.775C124.809 100.531 124.793 100.289 124.76 100.052C124.754 100.011 124.747 99.9708 124.74 99.931C124.699 99.6852 124.644 99.4433 124.568 99.2089C124.567 99.2049 124.565 99.2008 124.564 99.1961C124.482 98.9496 124.381 98.7111 124.263 98.4821C124.258 98.472 124.254 98.4612 124.248 98.4511C124.129 98.2227 123.991 98.0045 123.838 97.7977C123.829 97.7856 123.82 97.7734 123.81 97.7613C123.33 97.1227 122.697 96.5973 121.952 96.249C121.964 96.6135 121.941 96.9833 121.868 97.3558C121.348 100.025 118.739 101.783 116.071 101.263L112.808 100.628C112.709 103.329 113.714 104.564 113.714 104.564L118.923 105.577C121.593 106.095 124.202 104.337 124.721 101.668Z" fill="#BF1920"/>
<path d="M105.277 94.5383C104.962 94.7545 104.658 95.0933 104.724 95.4699C104.787 95.8269 105.15 96.0418 105.487 96.1738C106.086 96.4082 106.727 96.5342 107.369 96.5456C107.81 96.5531 108.265 96.5025 108.652 96.291C109.837 95.643 109.285 94.4359 108.246 94.1112C107.261 93.804 106.13 93.9542 105.277 94.5383Z" fill="#600D10"/>
<path d="M115.746 96.1835C115.327 96.2549 114.846 96.4638 114.784 96.8841C114.72 97.3085 115.135 97.654 115.54 97.7975C116.072 97.9861 116.647 97.9942 117.211 97.9969C117.501 97.9982 117.796 97.9983 118.074 97.9167C118.353 97.8352 118.617 97.6608 118.739 97.3974C119.339 96.1 116.393 96.073 115.746 96.1835Z" fill="#600D10"/>
<path d="M133.63 120.132C131.961 120.132 130.375 119.34 129.386 118.013L121.094 106.886C119.356 104.551 119.839 101.236 122.174 99.4963C123.088 98.8153 124.175 98.4556 125.319 98.4556C126.988 98.4556 128.574 99.2484 129.564 100.575L137.855 111.702C138.694 112.828 139.044 114.219 138.84 115.619C138.635 117.018 137.902 118.251 136.776 119.091C135.862 119.772 134.774 120.132 133.63 120.132Z" fill="#F2686E"/>
<path d="M125.32 98.7933C126.832 98.7933 128.326 99.4797 129.294 100.778L137.585 111.904C139.209 114.084 138.755 117.197 136.574 118.821C135.692 119.479 134.657 119.795 133.631 119.795C132.119 119.795 130.624 119.109 129.657 117.811L121.366 106.685C119.741 104.506 120.196 101.392 122.376 99.768C123.257 99.1105 124.293 98.7933 125.32 98.7933ZM125.32 98.1196C124.103 98.1196 122.946 98.5029 121.973 99.2278C119.49 101.078 118.975 104.605 120.826 107.088L129.117 118.214C130.169 119.627 131.856 120.47 133.631 120.47C134.847 120.47 136.004 120.086 136.977 119.362C139.461 117.512 139.975 113.985 138.125 111.502L129.834 100.376C128.781 98.963 127.094 98.1196 125.32 98.1196Z" fill="#020001"/>
<path d="M136.576 118.821C138.426 117.442 139.028 114.991 138.175 112.948C137.939 113.225 137.672 113.483 137.369 113.71C135.189 115.335 132.075 114.88 130.451 112.699L122.16 101.573C121.915 101.244 121.722 100.891 121.571 100.528C120.114 102.243 119.969 104.808 121.367 106.684L129.658 117.81C131.282 119.99 134.396 120.445 136.576 118.821Z" fill="#BF1920"/>
<path d="M136.847 118.603C136.892 118.565 136.937 118.525 136.98 118.485C137.004 118.463 137.026 118.44 137.05 118.418C137.089 118.38 137.129 118.342 137.167 118.303C137.189 118.28 137.212 118.255 137.234 118.231C137.27 118.192 137.307 118.153 137.342 118.113C137.363 118.088 137.383 118.063 137.404 118.038C137.439 117.997 137.473 117.956 137.506 117.913C137.526 117.889 137.544 117.864 137.563 117.839C137.596 117.795 137.629 117.75 137.66 117.705C137.677 117.681 137.693 117.657 137.709 117.634C137.742 117.586 137.773 117.537 137.804 117.488C137.817 117.466 137.831 117.444 137.844 117.422C137.877 117.369 137.907 117.315 137.937 117.261C137.947 117.242 137.958 117.224 137.968 117.205C138 117.145 138.031 117.083 138.062 117.021C138.068 117.008 138.075 116.996 138.081 116.983C138.115 116.91 138.148 116.836 138.179 116.762C138.18 116.76 138.181 116.758 138.182 116.756C138.378 116.278 138.5 115.774 138.542 115.261C138.209 115.92 137.724 116.513 137.095 116.981C134.915 118.606 131.802 118.152 130.178 115.972L127.094 111.833C126.523 112.862 126.488 113.557 126.488 113.557L129.659 117.812C131.284 119.992 134.397 120.447 136.576 118.822C136.648 118.769 136.717 118.714 136.784 118.658C136.804 118.641 136.825 118.621 136.847 118.603Z" fill="#BF1920"/>
<path d="M133.63 120.133C131.961 120.133 130.375 119.341 129.386 118.014L126.215 113.759C126.172 113.701 126.148 113.63 126.148 113.558C126.148 113.535 126.239 111.18 129.492 108.675C131.082 107.449 132.608 106.828 134.028 106.828C134.134 106.828 134.258 106.878 134.322 106.964L137.854 111.703C138.693 112.829 139.044 114.22 138.839 115.62C138.635 117.019 137.901 118.253 136.776 119.092C135.862 119.773 134.774 120.133 133.63 120.133Z" fill="#F2686E"/>
<path d="M134.029 107.163C134.037 107.163 134.045 107.163 134.053 107.163L137.584 111.902C139.209 114.082 138.754 117.196 136.574 118.82C135.692 119.477 134.658 119.794 133.63 119.794C132.119 119.794 130.624 119.108 129.657 117.81L126.486 113.555C126.486 113.555 126.598 111.327 129.698 108.939C131.587 107.484 133.059 107.163 134.029 107.163ZM134.029 106.489C132.533 106.489 130.937 107.134 129.287 108.406C125.991 110.944 125.82 113.415 125.814 113.519C125.805 113.676 125.852 113.832 125.946 113.958L129.117 118.212C130.169 119.625 131.857 120.468 133.631 120.468C134.847 120.468 136.005 120.084 136.977 119.36C139.461 117.51 139.976 113.983 138.125 111.5L134.594 106.76C134.467 106.59 134.268 106.49 134.057 106.489C134.055 106.489 134.029 106.489 134.029 106.489Z" fill="#020001"/>
<path d="M136.574 118.82C136.784 118.663 136.973 118.489 137.151 118.307C137.18 118.277 137.211 118.248 137.239 118.217C137.406 118.038 137.556 117.848 137.691 117.65C137.714 117.616 137.736 117.582 137.758 117.548C137.893 117.338 138.015 117.123 138.116 116.898C138.118 116.894 138.12 116.89 138.122 116.885C138.228 116.648 138.313 116.403 138.38 116.154C138.383 116.143 138.387 116.132 138.389 116.121C138.455 115.872 138.5 115.618 138.526 115.362C138.527 115.347 138.529 115.331 138.531 115.316C138.605 114.52 138.49 113.705 138.174 112.947C137.938 113.224 137.671 113.482 137.367 113.709C135.188 115.333 132.074 114.879 130.45 112.698L128.463 110.033C126.573 111.964 126.486 113.554 126.486 113.554L129.657 117.808C131.281 119.99 134.394 120.444 136.574 118.82Z" fill="#BF1920"/>
<path d="M126.992 100.467C126.614 100.415 126.161 100.461 125.956 100.784C125.762 101.09 125.886 101.494 126.047 101.818C126.333 102.394 126.722 102.919 127.19 103.36C127.511 103.662 127.882 103.931 128.31 104.035C129.623 104.353 130.026 103.089 129.477 102.149C128.955 101.259 128.017 100.609 126.992 100.467Z" fill="#600D10"/>
<path d="M133.629 108.727C133.27 108.498 132.774 108.329 132.445 108.598C132.113 108.87 132.187 109.404 132.39 109.783C132.656 110.28 133.076 110.674 133.491 111.055C133.705 111.251 133.923 111.45 134.184 111.577C134.444 111.704 134.758 111.753 135.025 111.64C136.343 111.083 134.182 109.08 133.629 108.727Z" fill="#600D10"/>
<path d="M90.5991 111.564C88.6611 111.564 86.882 110.515 85.9558 108.827C85.2802 107.596 85.1259 106.17 85.5213 104.812C85.9167 103.454 86.8133 102.334 88.0447 101.658L100.21 94.9838C100.982 94.5601 101.855 94.3364 102.735 94.3364C104.673 94.3364 106.452 95.3853 107.38 97.074C108.055 98.3054 108.21 99.7315 107.814 101.089C107.418 102.447 106.522 103.567 105.29 104.243L93.1252 110.918C92.3532 111.341 91.4795 111.564 90.5991 111.564Z" fill="#F2686E"/>
<path d="M102.736 94.6731C104.486 94.6731 106.188 95.6007 107.085 97.2349C108.392 99.6189 107.512 102.639 105.128 103.947L92.9634 110.621C92.2144 111.032 91.402 111.227 90.6004 111.227C88.8503 111.227 87.1487 110.3 86.2521 108.666C84.9446 106.282 85.8244 103.262 88.2083 101.954L100.373 95.2794C101.122 94.8678 101.935 94.6731 102.736 94.6731ZM102.737 93.9995C101.8 93.9995 100.87 94.238 100.049 94.6886L87.8843 101.363C86.5734 102.082 85.6203 103.273 85.1993 104.718C84.7783 106.162 84.9426 107.679 85.6614 108.99C86.6469 110.786 88.5391 111.901 90.6004 111.901C91.5367 111.901 92.4663 111.663 93.2874 111.212L105.452 104.538C108.168 103.048 109.165 99.627 107.675 96.9116C106.691 95.115 104.798 93.9995 102.737 93.9995Z" fill="#020001"/>
<path d="M107.082 97.235C105.972 95.2114 103.628 94.2771 101.487 94.8396C101.729 95.1117 101.947 95.4115 102.13 95.7436C103.438 98.1268 102.558 101.147 100.174 102.456L88.0088 109.13C87.6484 109.327 87.2732 109.469 86.8926 109.569C88.3894 111.248 90.9101 111.747 92.9612 110.621L105.126 103.947C107.509 102.639 108.39 99.6189 107.082 97.235Z" fill="#BF1920"/>
<path d="M106.906 96.9345C106.874 96.8847 106.841 96.8348 106.808 96.7863C106.789 96.7594 106.769 96.7338 106.75 96.7075C106.718 96.6631 106.686 96.6193 106.653 96.5762C106.633 96.5499 106.611 96.525 106.591 96.4994C106.557 96.4576 106.523 96.4165 106.488 96.3761C106.467 96.3518 106.445 96.3276 106.424 96.3033C106.387 96.2636 106.351 96.2239 106.314 96.1848C106.292 96.1626 106.27 96.1403 106.249 96.1188C106.209 96.0797 106.17 96.0413 106.129 96.0036C106.108 95.984 106.087 95.9645 106.065 95.945C106.022 95.9066 105.978 95.8682 105.934 95.8311C105.914 95.8143 105.894 95.7981 105.874 95.782C105.826 95.7429 105.777 95.7052 105.727 95.6681C105.71 95.6553 105.693 95.6425 105.676 95.6297C105.62 95.5893 105.563 95.5502 105.507 95.5118C105.495 95.5038 105.483 95.4957 105.472 95.4883C105.405 95.4438 105.336 95.4014 105.266 95.361C105.264 95.3596 105.262 95.3583 105.261 95.3576C104.816 95.0969 104.332 94.9069 103.831 94.7944C104.437 95.2154 104.958 95.7772 105.335 96.465C106.643 98.849 105.763 101.869 103.379 103.177L98.8535 105.66C99.7939 106.367 100.478 106.498 100.478 106.498L105.13 103.946C107.514 102.638 108.393 99.6176 107.086 97.2336C107.043 97.1562 106.998 97.08 106.952 97.0053C106.937 96.9817 106.921 96.9588 106.906 96.9345Z" fill="#BF1920"/>
<path d="M100.477 106.837C100.453 106.837 100.43 106.834 100.406 106.829C100.164 106.778 97.9837 106.231 96.0565 102.848C95.0575 101.093 94.654 99.487 94.8581 98.0744C94.8729 97.97 94.9369 97.8777 95.0299 97.8271L100.212 94.9838C100.984 94.5601 101.856 94.3364 102.737 94.3364C104.675 94.3364 106.454 95.3853 107.381 97.074C108.057 98.3054 108.211 99.7315 107.816 101.089C107.42 102.447 106.524 103.567 105.292 104.243L100.64 106.796C100.59 106.822 100.533 106.837 100.477 106.837Z" fill="#F2686E"/>
<path d="M102.738 94.6731C104.487 94.6731 106.19 95.6007 107.086 97.2349C108.394 99.6189 107.514 102.639 105.13 103.947L100.478 106.499C100.478 106.499 98.286 106.081 96.35 102.68C95.1597 100.591 95.0533 99.0813 95.1921 98.1221L100.374 95.2787C101.124 94.8678 101.936 94.6731 102.738 94.6731ZM102.738 93.9995C101.802 93.9995 100.872 94.238 100.051 94.6886L94.8687 97.532C94.6835 97.6337 94.5562 97.8169 94.5259 98.0257C94.3103 99.5138 94.7273 101.192 95.7647 103.015C97.8259 106.634 100.248 107.141 100.349 107.161C100.392 107.169 100.435 107.173 100.478 107.173C100.59 107.173 100.702 107.145 100.802 107.09L105.454 104.538C108.169 103.048 109.166 99.627 107.676 96.9116C106.692 95.115 104.799 93.9995 102.738 93.9995Z" fill="#020001"/>
<path d="M107.08 97.2353C106.954 97.0056 106.807 96.7941 106.651 96.5927C106.626 96.5597 106.602 96.5253 106.575 96.493C106.421 96.3037 106.253 96.1285 106.076 95.9669C106.045 95.9393 106.014 95.913 105.983 95.8867C105.795 95.7244 105.598 95.5728 105.389 95.4415C105.385 95.4394 105.381 95.4367 105.378 95.4347C105.157 95.2973 104.927 95.1787 104.69 95.0777C104.679 95.073 104.669 95.0683 104.659 95.0636C104.421 94.9645 104.176 94.885 103.925 94.8231C103.911 94.8197 103.896 94.8156 103.881 94.8123C103.104 94.6291 102.28 94.6297 101.485 94.8386C101.727 95.1107 101.946 95.4105 102.128 95.7426C103.436 98.1258 102.556 101.146 100.172 102.455L97.2578 104.054C98.9095 106.192 100.472 106.498 100.472 106.498L105.124 103.946C107.507 102.639 108.387 99.6193 107.08 97.2353Z" fill="#BF1920"/>
<path d="M87.5806 104.19C87.4762 104.558 87.46 105.013 87.7517 105.26C88.0279 105.495 88.4449 105.428 88.7884 105.314C89.3987 105.11 89.972 104.798 90.4731 104.395C90.8167 104.119 91.134 103.789 91.2963 103.379C91.7935 102.123 90.5964 101.548 89.59 101.963C88.6362 102.356 87.8629 103.195 87.5806 104.19Z" fill="#600D10"/>
<path d="M96.6777 98.7594C96.4015 99.0821 96.1651 99.5502 96.386 99.9133C96.609 100.28 97.1493 100.28 97.5521 100.132C98.0809 99.9369 98.5288 99.5745 98.9633 99.2161C99.187 99.0315 99.4133 98.8429 99.5756 98.6025C99.738 98.362 99.8296 98.0582 99.7548 97.7779C99.3863 96.397 97.1041 98.2609 96.6777 98.7594Z" fill="#600D10"/>
<path d="M119.881 126.349C119.559 126.349 119.235 126.319 118.917 126.26L105.275 123.72C102.413 123.188 100.517 120.426 101.051 117.563C101.516 115.064 103.701 113.25 106.244 113.25C106.566 113.25 106.89 113.28 107.208 113.339L120.85 115.879C123.712 116.411 125.608 119.173 125.075 122.036C124.609 124.535 122.424 126.349 119.881 126.349Z" fill="#F2686E"/>
<path d="M106.245 113.586C106.543 113.586 106.844 113.613 107.147 113.67L120.788 116.209C123.461 116.707 125.241 119.301 124.744 121.974C124.303 124.344 122.212 126.013 119.88 126.013C119.582 126.013 119.281 125.986 118.979 125.929L105.337 123.39C102.664 122.892 100.885 120.298 101.382 117.625C101.824 115.254 103.914 113.586 106.245 113.586ZM106.246 112.913C103.539 112.913 101.215 114.843 100.72 117.502C100.154 120.547 102.17 123.485 105.215 124.052L118.856 126.592C119.194 126.655 119.539 126.687 119.881 126.687C122.587 126.687 124.911 124.757 125.407 122.097C125.68 120.628 125.362 119.136 124.511 117.895C123.661 116.655 122.382 115.821 120.913 115.547L107.271 113.008C106.932 112.944 106.588 112.913 106.246 112.913Z" fill="#020001"/>
<path d="M124.743 121.974C125.165 119.704 123.943 117.498 121.93 116.576C121.945 116.941 121.924 117.31 121.855 117.683C121.357 120.356 118.763 122.136 116.091 121.638L102.449 119.099C102.046 119.023 101.665 118.895 101.307 118.732C101.402 120.98 103.037 122.961 105.337 123.389L118.978 125.929C121.651 126.427 124.245 124.647 124.743 121.974Z" fill="#BF1920"/>
<path d="M124.796 121.627C124.803 121.567 124.81 121.509 124.815 121.45C124.817 121.417 124.818 121.385 124.82 121.353C124.823 121.298 124.826 121.243 124.827 121.19C124.828 121.157 124.828 121.124 124.828 121.091C124.828 121.037 124.828 120.983 124.827 120.93C124.826 120.898 124.824 120.866 124.823 120.833C124.82 120.779 124.817 120.725 124.813 120.672C124.81 120.641 124.807 120.61 124.804 120.579C124.798 120.523 124.792 120.469 124.784 120.414C124.78 120.385 124.776 120.357 124.772 120.328C124.763 120.271 124.753 120.214 124.743 120.157C124.738 120.131 124.733 120.106 124.728 120.081C124.715 120.02 124.702 119.959 124.687 119.9C124.681 119.879 124.677 119.858 124.671 119.838C124.654 119.771 124.635 119.705 124.615 119.639C124.611 119.625 124.607 119.612 124.602 119.598C124.578 119.522 124.552 119.445 124.524 119.369C124.524 119.367 124.523 119.365 124.522 119.363C124.342 118.879 124.089 118.426 123.772 118.021C123.975 118.731 124.022 119.496 123.878 120.267C123.38 122.94 120.786 124.72 118.113 124.223L113.039 123.278C113.319 124.421 113.765 124.956 113.765 124.956L118.982 125.926C121.655 126.424 124.249 124.644 124.747 121.971C124.763 121.884 124.776 121.796 124.788 121.71C124.791 121.683 124.793 121.655 124.796 121.627Z" fill="#BF1920"/>
<path d="M119.881 126.349C119.559 126.349 119.235 126.319 118.917 126.26L113.7 125.289C113.624 125.275 113.554 125.234 113.504 125.174C113.441 125.1 111.98 123.298 112.654 119.332C112.991 117.341 113.696 115.842 114.749 114.879C114.811 114.822 114.893 114.791 114.976 114.791C114.996 114.791 115.018 114.793 115.038 114.797L120.85 115.878C123.712 116.411 125.607 119.173 125.075 122.036C124.609 124.535 122.425 126.349 119.881 126.349Z" fill="#F2686E"/>
<path d="M114.977 115.127L120.789 116.209C123.462 116.707 125.241 119.301 124.744 121.973C124.303 124.344 122.213 126.012 119.881 126.012C119.584 126.012 119.282 125.985 118.979 125.929L113.763 124.958C113.763 124.958 112.332 123.246 112.987 119.389C113.389 117.017 114.262 115.781 114.977 115.127ZM114.977 114.454C114.81 114.454 114.648 114.516 114.523 114.63C113.413 115.645 112.673 117.208 112.322 119.275C111.625 123.379 113.177 125.308 113.243 125.388C113.344 125.509 113.484 125.591 113.639 125.62L118.855 126.591C119.194 126.654 119.538 126.686 119.88 126.686C122.587 126.686 124.911 124.756 125.406 122.097C125.679 120.627 125.361 119.135 124.51 117.894C123.66 116.654 122.381 115.82 120.912 115.546L115.101 114.464C115.06 114.457 115.018 114.454 114.977 114.454Z" fill="#020001"/>
<path d="M124.743 121.972C124.791 121.714 124.812 121.458 124.818 121.204C124.82 121.162 124.822 121.12 124.822 121.079C124.822 120.834 124.804 120.593 124.768 120.355C124.762 120.315 124.755 120.275 124.748 120.234C124.704 119.989 124.648 119.747 124.57 119.514C124.568 119.51 124.566 119.506 124.565 119.501C124.481 119.255 124.378 119.018 124.259 118.789C124.253 118.779 124.248 118.768 124.243 118.758C124.122 118.531 123.982 118.313 123.828 118.108C123.819 118.096 123.81 118.084 123.8 118.071C123.315 117.437 122.678 116.916 121.93 116.575C121.945 116.939 121.924 117.309 121.855 117.681C121.357 120.354 118.763 122.134 116.091 121.637L112.822 121.029C112.746 123.73 113.761 124.957 113.761 124.957L118.978 125.927C121.652 126.425 124.246 124.645 124.743 121.972Z" fill="#BF1920"/>
<path d="M105.247 115.004C104.933 115.223 104.632 115.564 104.701 115.94C104.767 116.296 105.132 116.509 105.471 116.638C106.072 116.867 106.713 116.988 107.356 116.994C107.797 116.998 108.251 116.943 108.637 116.729C109.817 116.072 109.254 114.869 108.213 114.552C107.226 114.253 106.095 114.413 105.247 115.004Z" fill="#600D10"/>
<path d="M115.726 116.564C115.308 116.639 114.828 116.852 114.769 117.273C114.709 117.698 115.128 118.04 115.533 118.18C116.066 118.364 116.642 118.368 117.205 118.366C117.496 118.365 117.79 118.362 118.068 118.279C118.346 118.195 118.609 118.018 118.729 117.754C119.318 116.451 116.371 116.448 115.726 116.564Z" fill="#600D10"/>
<path d="M96.5182 130.353C93.9766 130.353 91.7927 128.542 91.3252 126.046C90.789 123.184 92.6812 120.42 95.5428 119.883L109.181 117.328C109.501 117.268 109.826 117.237 110.15 117.237C112.691 117.237 114.876 119.049 115.343 121.546C115.879 124.407 113.987 127.172 111.126 127.707L97.4875 130.262C97.1676 130.323 96.8422 130.353 96.5182 130.353Z" fill="#F2686E"/>
<path d="M110.15 117.574C112.48 117.574 114.569 119.239 115.012 121.607C115.513 124.279 113.737 126.875 111.064 127.376L97.4255 129.931C97.1211 129.988 96.8179 130.015 96.5188 130.015C94.1895 130.015 92.0999 128.351 91.6566 125.982C91.1561 123.31 92.9332 120.714 95.6054 120.213L109.244 117.658C109.548 117.602 109.851 117.574 110.15 117.574ZM110.151 116.9C109.807 116.9 109.46 116.933 109.12 116.997L95.4815 119.552C92.4374 120.122 90.4246 123.063 90.9951 126.107C91.4923 128.762 93.8163 130.689 96.5195 130.689C96.8637 130.689 97.2107 130.657 97.5502 130.593L111.188 128.038C112.657 127.763 113.935 126.927 114.784 125.686C115.634 124.445 115.95 122.952 115.675 121.483C115.178 118.828 112.854 116.9 110.151 116.9Z" fill="#020001"/>
<path d="M115.018 121.608C114.593 119.339 112.656 117.721 110.447 117.589C110.592 117.923 110.707 118.276 110.777 118.649C111.277 121.321 109.5 123.917 106.828 124.418L93.1899 126.973C92.7864 127.048 92.3856 127.067 91.9922 127.043C92.8921 129.105 95.1319 130.363 97.4317 129.932L111.07 127.377C113.741 126.876 115.518 124.28 115.018 121.608Z" fill="#BF1920"/>
<path d="M114.939 121.268C114.925 121.21 114.909 121.153 114.892 121.097C114.883 121.066 114.872 121.035 114.863 121.004C114.846 120.952 114.829 120.901 114.811 120.849C114.799 120.818 114.787 120.787 114.776 120.756C114.757 120.707 114.737 120.657 114.716 120.608C114.704 120.578 114.69 120.548 114.677 120.519C114.655 120.469 114.633 120.42 114.61 120.373C114.596 120.344 114.582 120.317 114.568 120.289C114.543 120.24 114.518 120.191 114.491 120.143C114.477 120.117 114.462 120.092 114.448 120.067C114.419 120.018 114.39 119.968 114.359 119.918C114.346 119.896 114.332 119.875 114.318 119.853C114.285 119.801 114.25 119.75 114.214 119.699C114.202 119.681 114.19 119.664 114.178 119.646C114.138 119.59 114.097 119.536 114.054 119.481C114.045 119.47 114.037 119.459 114.028 119.448C113.977 119.384 113.926 119.323 113.872 119.262C113.871 119.261 113.87 119.259 113.868 119.258C113.526 118.871 113.126 118.54 112.685 118.277C113.13 118.866 113.449 119.561 113.594 120.333C114.095 123.005 112.318 125.601 109.645 126.102L104.572 127.052C105.246 128.017 105.855 128.354 105.855 128.354L111.071 127.377C113.743 126.876 115.52 124.28 115.019 121.608C115.003 121.521 114.984 121.435 114.964 121.349C114.955 121.322 114.947 121.295 114.939 121.268Z" fill="#BF1920"/>
<path d="M105.852 128.69C105.657 128.69 103.601 127.493 102.787 123.507C102.384 121.527 102.501 119.876 103.136 118.597C103.183 118.502 103.272 118.436 103.376 118.416L109.186 117.328C109.505 117.268 109.831 117.237 110.155 117.237C112.696 117.237 114.88 119.049 115.348 121.546C115.884 124.407 113.992 127.172 111.13 127.707L105.915 128.684C105.894 128.688 105.873 128.69 105.852 128.69Z" fill="#F2686E"/>
<path d="M110.154 117.574C112.484 117.574 114.573 119.239 115.017 121.607C115.517 124.279 113.741 126.875 111.068 127.376L105.852 128.353C105.852 128.353 103.9 127.274 103.118 123.439C102.638 121.083 103.006 119.615 103.437 118.747L109.247 117.658C109.552 117.602 109.855 117.574 110.154 117.574ZM110.154 116.9C109.81 116.9 109.463 116.933 109.124 116.997L103.314 118.085C103.106 118.124 102.929 118.258 102.834 118.448C102.166 119.796 102.039 121.52 102.458 123.575C103.291 127.657 105.434 128.892 105.525 128.943C105.626 128.999 105.738 129.028 105.853 129.028C105.894 129.028 105.936 129.024 105.977 129.016L111.192 128.039C112.661 127.763 113.938 126.928 114.788 125.687C115.637 124.446 115.954 122.953 115.678 121.484C115.182 118.828 112.858 116.9 110.154 116.9Z" fill="#020001"/>
<path d="M115.015 121.608C114.966 121.35 114.894 121.104 114.808 120.864C114.794 120.825 114.782 120.784 114.766 120.745C114.678 120.517 114.574 120.299 114.455 120.09C114.435 120.054 114.413 120.02 114.392 119.985C114.264 119.771 114.124 119.566 113.967 119.377C113.964 119.374 113.961 119.37 113.958 119.367C113.792 119.168 113.61 118.984 113.415 118.814C113.406 118.807 113.398 118.799 113.39 118.791C113.195 118.623 112.987 118.47 112.768 118.334C112.756 118.326 112.743 118.318 112.729 118.31C112.048 117.894 111.265 117.639 110.444 117.589C110.59 117.923 110.704 118.276 110.774 118.649C111.275 121.321 109.498 123.917 106.826 124.418L103.559 125.03C104.463 127.577 105.852 128.354 105.852 128.354L111.068 127.376C113.738 126.877 115.515 124.28 115.015 121.608Z" fill="#BF1920"/>
<path d="M94.3159 122.145C94.1024 122.462 93.9447 122.889 94.1448 123.215C94.3348 123.524 94.7511 123.59 95.1135 123.588C95.7561 123.586 96.3987 123.466 97.0003 123.24C97.4125 123.084 97.8174 122.87 98.099 122.531C98.9626 121.491 98.004 120.573 96.9188 120.654C95.8902 120.73 94.8939 121.287 94.3159 122.145Z" fill="#600D10"/>
<path d="M104.652 119.815C104.289 120.036 103.919 120.408 104.016 120.821C104.113 121.24 104.627 121.407 105.056 121.392C105.619 121.372 106.157 121.167 106.682 120.961C106.952 120.856 107.226 120.747 107.455 120.569C107.684 120.391 107.865 120.13 107.882 119.841C107.962 118.414 105.213 119.475 104.652 119.815Z" fill="#600D10"/>
<path d="M134.331 141.035C133.377 141.035 132.442 140.776 131.625 140.286L119.731 133.14C117.236 131.64 116.426 128.39 117.924 125.894C118.871 124.317 120.611 123.338 122.464 123.338C123.417 123.338 124.353 123.597 125.17 124.088L137.064 131.233C139.559 132.733 140.37 135.983 138.871 138.479C137.923 140.056 136.184 141.035 134.331 141.035Z" fill="#F2686E"/>
<path d="M122.465 123.673C123.33 123.673 124.205 123.899 124.997 124.375L136.891 131.52C139.222 132.921 139.983 135.973 138.582 138.304C137.658 139.842 136.013 140.697 134.331 140.697C133.466 140.697 132.591 140.471 131.799 139.995L119.905 132.849C117.574 131.449 116.813 128.397 118.213 126.066C119.138 124.527 120.783 123.673 122.465 123.673ZM122.465 122.999C120.495 122.999 118.645 124.041 117.637 125.719C116.042 128.374 116.904 131.832 119.559 133.427L131.454 140.572C132.323 141.095 133.318 141.371 134.333 141.371C136.303 141.371 138.153 140.329 139.161 138.651C139.931 137.369 140.155 135.86 139.79 134.4C139.427 132.94 138.521 131.713 137.239 130.943L125.344 123.797C124.475 123.275 123.479 122.999 122.465 122.999Z" fill="#020001"/>
<path d="M138.583 138.305C139.772 136.326 139.398 133.831 137.833 132.264C137.721 132.61 137.572 132.951 137.377 133.275C135.977 135.606 132.924 136.367 130.593 134.967L118.698 127.822C118.346 127.61 118.035 127.357 117.757 127.079C117.061 129.218 117.9 131.646 119.906 132.851L131.8 139.997C134.13 141.396 137.183 140.635 138.583 138.305Z" fill="#BF1920"/>
<path d="M138.755 137.999C138.782 137.946 138.809 137.894 138.834 137.84C138.848 137.81 138.861 137.78 138.873 137.751C138.896 137.701 138.917 137.651 138.937 137.601C138.949 137.57 138.961 137.539 138.972 137.508C138.991 137.458 139.01 137.407 139.027 137.357C139.038 137.326 139.047 137.295 139.057 137.264C139.073 137.213 139.09 137.161 139.104 137.11C139.112 137.08 139.12 137.05 139.128 137.019C139.142 136.966 139.155 136.912 139.168 136.858C139.174 136.83 139.18 136.802 139.186 136.773C139.198 136.717 139.208 136.66 139.218 136.603C139.222 136.577 139.227 136.552 139.231 136.527C139.24 136.466 139.249 136.404 139.256 136.343C139.259 136.322 139.261 136.301 139.263 136.28C139.27 136.211 139.275 136.142 139.28 136.074C139.281 136.06 139.282 136.046 139.283 136.032C139.287 135.951 139.29 135.871 139.29 135.79C139.29 135.788 139.29 135.785 139.29 135.783C139.29 135.267 139.211 134.754 139.056 134.264C138.997 135 138.774 135.733 138.37 136.406C136.97 138.736 133.917 139.498 131.587 138.097L127.162 135.439C127.026 136.608 127.257 137.264 127.257 137.264L131.805 139.997C134.136 141.397 137.188 140.636 138.588 138.305C138.634 138.229 138.677 138.152 138.718 138.075C138.731 138.05 138.743 138.024 138.755 137.999Z" fill="#BF1920"/>
<path d="M134.332 141.034C133.378 141.034 132.443 140.775 131.626 140.284L127.078 137.551C127.011 137.511 126.96 137.449 126.934 137.374C126.901 137.283 126.162 135.085 128.179 131.604C129.192 129.856 130.376 128.699 131.699 128.164C131.739 128.148 131.783 128.14 131.826 128.14C131.886 128.14 131.946 128.156 131.999 128.188L137.066 131.232C139.562 132.732 140.373 135.982 138.874 138.478C137.924 140.054 136.185 141.034 134.332 141.034Z" fill="#F2686E"/>
<path d="M131.826 128.475L136.893 131.519C139.224 132.919 139.985 135.972 138.585 138.302C137.66 139.842 136.016 140.696 134.334 140.696C133.469 140.696 132.593 140.469 131.801 139.994L127.253 137.261C127.253 137.261 126.511 135.157 128.472 131.771C129.677 129.691 130.927 128.839 131.826 128.475ZM131.826 127.801C131.74 127.801 131.655 127.817 131.573 127.85C130.179 128.414 128.939 129.619 127.888 131.434C125.802 135.035 126.582 137.384 126.616 137.483C126.668 137.631 126.77 137.757 126.906 137.839L131.454 140.572C132.323 141.094 133.318 141.37 134.333 141.37C136.303 141.37 138.154 140.328 139.161 138.65C139.931 137.369 140.155 135.859 139.791 134.399C139.427 132.94 138.52 131.712 137.239 130.942L132.172 127.898C132.067 127.834 131.947 127.801 131.826 127.801Z" fill="#020001"/>
<path d="M138.587 138.305C138.722 138.08 138.831 137.847 138.926 137.611C138.942 137.573 138.959 137.534 138.974 137.495C139.06 137.266 139.127 137.034 139.177 136.799C139.186 136.759 139.192 136.719 139.2 136.679C139.245 136.434 139.276 136.188 139.285 135.941C139.285 135.937 139.285 135.933 139.285 135.928C139.293 135.668 139.278 135.41 139.246 135.154C139.245 135.142 139.244 135.131 139.243 135.119C139.208 134.864 139.154 134.612 139.081 134.365C139.077 134.35 139.072 134.336 139.068 134.321C138.834 133.557 138.419 132.847 137.838 132.265C137.725 132.611 137.576 132.951 137.381 133.276C135.981 135.606 132.928 136.368 130.597 134.967L127.748 133.256C126.733 135.76 127.256 137.264 127.256 137.264L131.804 139.996C134.134 141.397 137.186 140.636 138.587 138.305Z" fill="#BF1920"/>
<path d="M122.748 124.96C122.378 125.055 121.976 125.27 121.91 125.647C121.846 126.004 122.115 126.33 122.387 126.57C122.87 126.994 123.428 127.332 124.029 127.562C124.441 127.72 124.886 127.827 125.322 127.761C126.657 127.558 126.55 126.234 125.685 125.574C124.865 124.948 123.75 124.703 122.748 124.96Z" fill="#600D10"/>
<path d="M132.025 130.084C131.607 130.008 131.083 130.039 130.881 130.413C130.677 130.79 130.949 131.257 131.28 131.53C131.715 131.889 132.254 132.093 132.782 132.288C133.054 132.388 133.331 132.489 133.621 132.507C133.911 132.526 134.219 132.452 134.423 132.247C135.431 131.234 132.67 130.201 132.025 130.084Z" fill="#600D10"/>
<path d="M99.9714 117.003C99.8461 117.003 99.7188 116.999 99.5915 116.989L85.7513 115.994C84.3501 115.893 83.0689 115.248 82.1427 114.179C81.2164 113.109 80.7624 111.749 80.8635 110.347C81.0615 107.599 83.3747 105.447 86.1292 105.447C86.2558 105.447 86.3818 105.451 86.5098 105.46L100.349 106.457C101.75 106.557 103.032 107.202 103.958 108.271C104.883 109.34 105.338 110.7 105.236 112.102C105.039 114.851 102.726 117.003 99.9714 117.003Z" fill="#F2686E"/>
<path d="M86.1302 105.783C86.2481 105.783 86.3666 105.788 86.4859 105.796L100.326 106.792C103.038 106.987 105.097 109.366 104.902 112.077C104.715 114.67 102.534 116.666 99.9725 116.666C99.8546 116.666 99.736 116.662 99.6168 116.653L85.7765 115.657C83.0645 115.462 81.0053 113.084 81.2006 110.372C81.3865 107.779 83.5691 105.783 86.1302 105.783ZM86.1302 105.11C83.1992 105.11 80.7385 107.4 80.5283 110.324C80.306 113.413 82.6388 116.107 85.728 116.33L99.5683 117.325C99.7037 117.335 99.8384 117.34 99.9725 117.34C102.903 117.34 105.364 115.05 105.574 112.126C105.797 109.037 103.464 106.343 100.375 106.121L86.5344 105.125C86.3983 105.115 86.2642 105.11 86.1302 105.11Z" fill="#020001"/>
<path d="M104.9 112.077C105.065 109.775 103.604 107.718 101.5 107.028C101.556 107.388 101.577 107.759 101.55 108.137C101.354 110.849 98.9758 112.908 96.2644 112.713L82.4242 111.717C82.0146 111.688 81.6226 111.604 81.248 111.48C81.5943 113.703 83.4407 115.489 85.7741 115.657L99.6144 116.653C102.326 116.848 104.705 114.789 104.9 112.077Z" fill="#BF1920"/>
<path d="M104.908 111.729C104.908 111.67 104.908 111.61 104.906 111.551C104.905 111.519 104.903 111.486 104.901 111.454C104.898 111.399 104.895 111.345 104.89 111.291C104.887 111.258 104.883 111.225 104.879 111.193C104.873 111.139 104.868 111.086 104.86 111.034C104.855 111.001 104.85 110.97 104.844 110.937C104.836 110.884 104.827 110.831 104.816 110.778C104.81 110.748 104.803 110.718 104.797 110.687C104.786 110.634 104.773 110.58 104.759 110.526C104.753 110.497 104.745 110.47 104.737 110.442C104.722 110.386 104.706 110.33 104.689 110.275C104.681 110.25 104.673 110.226 104.665 110.201C104.646 110.142 104.625 110.084 104.604 110.026C104.596 110.006 104.589 109.986 104.582 109.966C104.557 109.902 104.53 109.838 104.503 109.775C104.498 109.763 104.493 109.749 104.487 109.736C104.454 109.662 104.42 109.589 104.384 109.517C104.383 109.515 104.382 109.513 104.381 109.511C104.148 109.051 103.845 108.629 103.485 108.262C103.766 108.944 103.898 109.699 103.842 110.481C103.647 113.193 101.269 115.253 98.5567 115.057L93.4082 114.687C93.8144 115.791 94.3176 116.272 94.3176 116.272L99.6102 116.652C102.322 116.848 104.701 114.788 104.895 112.076C104.902 111.988 104.906 111.9 104.907 111.812C104.909 111.785 104.908 111.756 104.908 111.729Z" fill="#BF1920"/>
<path d="M99.9689 117.003C99.8436 117.003 99.7163 116.998 99.589 116.989L94.2964 116.608C94.2189 116.602 94.1448 116.57 94.0875 116.515C94.0168 116.448 92.3644 114.821 92.5894 110.805C92.7019 108.788 93.2347 107.221 94.1724 106.145C94.2371 106.072 94.3294 106.03 94.4264 106.03C94.4345 106.03 100.346 106.455 100.346 106.455C101.747 106.556 103.029 107.2 103.955 108.269C104.88 109.338 105.334 110.699 105.233 112.101C105.037 114.85 102.723 117.003 99.9689 117.003Z" fill="#F2686E"/>
<path d="M94.4275 106.367L100.323 106.792C103.035 106.987 105.094 109.366 104.899 112.077C104.712 114.67 102.53 116.666 99.9694 116.666C99.8515 116.666 99.7329 116.662 99.6137 116.653L94.321 116.272C94.321 116.272 92.707 114.731 92.926 110.825C93.0607 108.423 93.7902 107.098 94.4275 106.367ZM94.4275 105.694C94.2341 105.694 94.0482 105.777 93.9202 105.924C92.9313 107.057 92.3709 108.693 92.2537 110.786C92.0206 114.949 93.7801 116.686 93.8549 116.758C93.9681 116.867 94.1162 116.933 94.2725 116.944L99.5652 117.325C99.7006 117.334 99.8353 117.339 99.9694 117.339C102.9 117.339 105.361 115.049 105.571 112.126C105.793 109.036 103.461 106.342 100.372 106.12L94.476 105.696C94.4598 105.695 94.4436 105.694 94.4275 105.694Z" fill="#020001"/>
<path d="M104.897 112.077C104.916 111.816 104.908 111.558 104.886 111.304C104.883 111.263 104.88 111.221 104.876 111.179C104.849 110.936 104.803 110.698 104.742 110.466C104.731 110.427 104.719 110.388 104.708 110.349C104.638 110.109 104.554 109.876 104.451 109.653C104.449 109.649 104.447 109.645 104.445 109.641C104.334 109.406 104.206 109.181 104.061 108.968C104.055 108.958 104.049 108.948 104.043 108.939C103.896 108.727 103.734 108.526 103.557 108.339C103.546 108.328 103.536 108.317 103.525 108.306C102.971 107.73 102.28 107.284 101.498 107.028C101.554 107.388 101.575 107.759 101.548 108.137C101.353 110.849 98.9742 112.908 96.2628 112.713L92.9473 112.475C93.1736 115.168 94.3201 116.272 94.3201 116.272L99.6128 116.653C102.324 116.848 104.703 114.789 104.897 112.077Z" fill="#BF1920"/>
<path d="M84.7388 107.334C84.4511 107.586 84.1905 107.959 84.3016 108.325C84.4067 108.672 84.7927 108.842 85.1436 108.932C85.7661 109.092 86.4174 109.141 87.0567 109.075C87.4952 109.029 87.9412 108.925 88.2995 108.668C89.3989 107.883 88.7057 106.751 87.6347 106.553C86.6209 106.366 85.5155 106.651 84.7388 107.334Z" fill="#600D10"/>
<path d="M95.3321 107.711C94.9246 107.832 94.4726 108.097 94.4612 108.522C94.4497 108.951 94.9031 109.244 95.322 109.337C95.8717 109.461 96.445 109.399 97.0047 109.335C97.2931 109.301 97.5854 109.265 97.8522 109.151C98.1189 109.038 98.3607 108.832 98.4497 108.556C98.8889 107.196 95.9606 107.523 95.3321 107.711Z" fill="#600D10"/>
<path d="M112.519 132.19C111.571 132.19 110.64 131.934 109.827 131.448L97.912 124.337C96.7056 123.616 95.8508 122.465 95.5038 121.094C95.1576 119.722 95.3637 118.303 96.0832 117.096C97.0296 115.511 98.7723 114.526 100.631 114.526C101.579 114.526 102.51 114.783 103.323 115.268L115.239 122.38C116.445 123.1 117.3 124.252 117.646 125.623C117.993 126.994 117.787 128.413 117.067 129.62C116.121 131.205 114.378 132.19 112.519 132.19Z" fill="#F2686E"/>
<path d="M100.633 114.863C101.494 114.863 102.364 115.086 103.152 115.557L115.067 122.669C117.402 124.062 118.172 127.112 116.779 129.447C115.856 130.992 114.207 131.853 112.52 131.853C111.66 131.853 110.79 131.629 110.001 131.158L98.0857 124.047C95.751 122.653 94.981 119.603 96.374 117.269C97.2962 115.723 98.9459 114.863 100.633 114.863ZM100.633 114.189C98.6556 114.189 96.8018 115.236 95.7954 116.923C95.0295 118.207 94.8099 119.717 95.1784 121.176C95.5468 122.635 96.4562 123.859 97.7402 124.625L109.655 131.737C110.521 132.254 111.512 132.526 112.52 132.526C114.497 132.526 116.351 131.479 117.357 129.792C118.123 128.508 118.343 126.999 117.974 125.54C117.606 124.08 116.697 122.856 115.413 122.09L103.498 114.978C102.631 114.462 101.641 114.189 100.633 114.189Z" fill="#020001"/>
<path d="M116.783 129.447C117.966 127.465 117.585 124.971 116.016 123.409C115.904 123.756 115.756 124.096 115.562 124.421C114.168 126.756 111.118 127.526 108.783 126.133L96.868 119.022C96.5157 118.811 96.2031 118.559 95.9243 118.281C95.2345 120.423 96.0805 122.848 98.0899 124.047L110.005 131.158C112.339 132.552 115.389 131.782 116.783 129.447Z" fill="#BF1920"/>
<path d="M116.952 129.14C116.979 129.086 117.005 129.034 117.03 128.98C117.044 128.95 117.056 128.921 117.069 128.891C117.091 128.841 117.113 128.791 117.133 128.74C117.145 128.709 117.156 128.678 117.168 128.647C117.187 128.597 117.205 128.547 117.222 128.496C117.232 128.465 117.243 128.434 117.252 128.403C117.268 128.352 117.284 128.3 117.298 128.249C117.307 128.219 117.315 128.189 117.323 128.159C117.336 128.106 117.35 128.052 117.362 127.998C117.368 127.969 117.374 127.941 117.38 127.913C117.391 127.856 117.402 127.799 117.412 127.742C117.416 127.717 117.42 127.691 117.424 127.666C117.433 127.605 117.441 127.544 117.448 127.482C117.451 127.462 117.453 127.44 117.455 127.419C117.462 127.35 117.468 127.282 117.472 127.214C117.472 127.199 117.474 127.185 117.474 127.171C117.478 127.09 117.48 127.01 117.48 126.929C117.48 126.927 117.48 126.925 117.48 126.923C117.48 126.406 117.399 125.893 117.242 125.404C117.186 126.141 116.965 126.873 116.563 127.547C115.17 129.882 112.119 130.652 109.784 129.259L105.352 126.613C105.218 127.782 105.451 128.438 105.451 128.438L110.008 131.158C112.343 132.551 115.393 131.781 116.786 129.446C116.832 129.37 116.875 129.293 116.916 129.216C116.928 129.19 116.939 129.165 116.952 129.14Z" fill="#BF1920"/>
<path d="M112.522 132.189C111.575 132.189 110.644 131.932 109.831 131.447L105.274 128.727C105.206 128.687 105.156 128.625 105.129 128.551C105.096 128.459 104.351 126.262 106.357 122.777C107.364 121.026 108.545 119.866 109.867 119.326C109.907 119.31 109.951 119.301 109.994 119.301C110.054 119.301 110.114 119.317 110.167 119.348L115.242 122.378C116.449 123.098 117.304 124.25 117.65 125.621C117.996 126.993 117.79 128.411 117.071 129.618C116.124 131.204 114.381 132.189 112.522 132.189Z" fill="#F2686E"/>
<path d="M109.993 119.638L115.069 122.667C117.404 124.06 118.174 127.111 116.781 129.445C115.858 130.991 114.209 131.851 112.522 131.851C111.662 131.851 110.791 131.628 110.003 131.157L105.446 128.438C105.446 128.438 104.697 126.336 106.649 122.944C107.848 120.86 109.095 120.004 109.993 119.638ZM109.993 118.964C109.907 118.964 109.821 118.981 109.739 119.014C108.347 119.581 107.111 120.791 106.065 122.609C103.907 126.358 104.825 128.701 104.835 128.722C104.893 128.844 104.985 128.947 105.101 129.016L109.657 131.736C110.523 132.252 111.514 132.525 112.522 132.525C114.499 132.525 116.353 131.478 117.359 129.791C118.125 128.507 118.345 126.997 117.976 125.538C117.608 124.079 116.699 122.855 115.415 122.089L110.339 119.059C110.233 118.996 110.113 118.964 109.993 118.964Z" fill="#020001"/>
<path d="M116.783 129.447C116.917 129.222 117.026 128.988 117.121 128.752C117.136 128.713 117.154 128.674 117.168 128.635C117.253 128.406 117.319 128.173 117.369 127.938C117.377 127.898 117.384 127.858 117.391 127.818C117.436 127.572 117.467 127.326 117.474 127.08C117.474 127.075 117.474 127.071 117.474 127.066C117.481 126.807 117.467 126.548 117.434 126.292C117.433 126.281 117.432 126.27 117.431 126.259C117.396 126.003 117.34 125.752 117.266 125.505C117.262 125.49 117.257 125.476 117.253 125.461C117.017 124.698 116.6 123.989 116.017 123.409C115.905 123.756 115.757 124.096 115.563 124.421C114.169 126.756 111.119 127.526 108.784 126.133L105.929 124.429C104.921 126.936 105.448 128.439 105.448 128.439L110.005 131.158C112.339 132.552 115.389 131.782 116.783 129.447Z" fill="#BF1920"/>
<path d="M100.907 116.148C100.538 116.244 100.137 116.461 100.071 116.837C100.01 117.194 100.278 117.519 100.551 117.758C101.035 118.181 101.595 118.517 102.196 118.745C102.608 118.902 103.054 119.009 103.489 118.941C104.825 118.733 104.714 117.41 103.846 116.753C103.024 116.13 101.908 115.887 100.907 116.148Z" fill="#600D10"/>
<path d="M110.197 121.245C109.779 121.17 109.256 121.203 109.054 121.578C108.851 121.955 109.124 122.422 109.456 122.694C109.892 123.051 110.431 123.254 110.961 123.448C111.233 123.547 111.51 123.647 111.8 123.665C112.09 123.683 112.397 123.609 112.602 123.402C113.606 122.384 110.843 121.36 110.197 121.245Z" fill="#600D10"/>
<path d="M120.029 133.286C117.857 133.286 115.873 131.93 115.092 129.913C114.042 127.198 115.396 124.134 118.11 123.083L131.051 118.075C131.658 117.839 132.295 117.72 132.944 117.72C135.117 117.72 137.1 119.076 137.881 121.093C138.933 123.808 137.578 126.873 134.863 127.924L121.923 132.931C121.315 133.166 120.678 133.286 120.029 133.286Z" fill="#F2686E"/>
<path d="M132.945 118.057C134.929 118.057 136.811 119.26 137.568 121.215C138.549 123.75 137.278 126.628 134.742 127.609L121.802 132.617C121.22 132.842 120.621 132.948 120.031 132.948C118.046 132.948 116.164 131.744 115.408 129.79C114.426 127.255 115.698 124.377 118.234 123.396L131.174 118.388C131.755 118.163 132.355 118.057 132.945 118.057ZM132.946 117.383C132.255 117.383 131.577 117.51 130.931 117.761L117.99 122.768C116.596 123.308 115.493 124.363 114.886 125.738C114.277 127.114 114.24 128.64 114.779 130.034C115.61 132.18 117.72 133.622 120.031 133.622C120.721 133.622 121.399 133.496 122.045 133.245L134.985 128.237C137.874 127.12 139.314 123.86 138.196 120.972C137.365 118.826 135.255 117.383 132.946 117.383Z" fill="#020001"/>
<path d="M137.569 121.214C136.735 119.061 134.536 117.826 132.339 118.1C132.543 118.402 132.72 118.728 132.857 119.081C133.838 121.617 132.566 124.495 130.031 125.475L117.09 130.483C116.707 130.631 116.316 130.722 115.926 130.771C117.188 132.633 119.62 133.46 121.802 132.616L134.742 127.608C137.278 126.627 138.55 123.749 137.569 121.214Z" fill="#BF1920"/>
<path d="M137.429 120.896C137.404 120.842 137.379 120.788 137.352 120.737C137.337 120.708 137.321 120.679 137.305 120.651C137.279 120.603 137.253 120.555 137.226 120.508C137.209 120.479 137.191 120.452 137.174 120.423C137.146 120.378 137.118 120.332 137.088 120.288C137.07 120.261 137.052 120.234 137.034 120.207C137.004 120.163 136.973 120.119 136.941 120.076C136.923 120.051 136.904 120.026 136.885 120.002C136.851 119.958 136.817 119.915 136.782 119.872C136.764 119.849 136.745 119.827 136.726 119.805C136.688 119.761 136.65 119.717 136.611 119.675C136.594 119.656 136.576 119.637 136.559 119.618C136.516 119.573 136.473 119.529 136.429 119.486C136.413 119.471 136.399 119.456 136.383 119.441C136.333 119.393 136.283 119.348 136.231 119.302C136.22 119.292 136.21 119.283 136.199 119.274C136.138 119.221 136.076 119.169 136.013 119.12C136.011 119.119 136.009 119.117 136.007 119.116C135.6 118.799 135.146 118.547 134.664 118.368C135.21 118.865 135.651 119.491 135.934 120.223C136.916 122.759 135.644 125.637 133.109 126.617L128.295 128.48C129.134 129.305 129.794 129.525 129.794 129.525L134.742 127.61C137.278 126.629 138.549 123.752 137.568 121.216C137.536 121.133 137.502 121.053 137.466 120.972C137.454 120.946 137.441 120.921 137.429 120.896Z" fill="#BF1920"/>
<path d="M129.792 129.861C129.755 129.861 129.72 129.855 129.685 129.844C129.593 129.813 127.404 129.047 125.893 125.32C125.134 123.449 124.947 121.803 125.336 120.43C125.365 120.328 125.439 120.246 125.539 120.208L131.051 118.075C131.658 117.839 132.296 117.72 132.944 117.72C135.117 117.72 137.101 119.076 137.881 121.093C138.933 123.808 137.578 126.873 134.863 127.924L129.914 129.839C129.874 129.853 129.833 129.861 129.792 129.861Z" fill="#F2686E"/>
<path d="M132.944 118.057C134.928 118.057 136.811 119.261 137.567 121.215C138.549 123.75 137.277 126.628 134.741 127.609L129.793 129.524C129.793 129.524 127.676 128.819 126.206 125.193C125.302 122.964 125.396 121.455 125.661 120.522L131.173 118.388C131.754 118.163 132.353 118.057 132.944 118.057ZM132.944 117.383C132.254 117.383 131.576 117.51 130.93 117.761L125.418 119.894C125.22 119.97 125.071 120.135 125.013 120.338C124.603 121.785 124.794 123.504 125.581 125.447C127.169 129.364 129.492 130.136 129.59 130.167C129.656 130.188 129.725 130.199 129.793 130.199C129.875 130.199 129.958 130.183 130.036 130.153L134.984 128.238C137.873 127.121 139.313 123.861 138.196 120.972C137.364 118.826 135.255 117.383 132.944 117.383Z" fill="#020001"/>
<path d="M137.569 121.213C137.475 120.969 137.357 120.74 137.229 120.519C137.208 120.483 137.189 120.446 137.167 120.411C137.039 120.203 136.896 120.008 136.741 119.824C136.715 119.793 136.687 119.762 136.66 119.732C136.495 119.546 136.319 119.37 136.13 119.213C136.127 119.21 136.123 119.207 136.119 119.205C135.919 119.04 135.706 118.891 135.485 118.76C135.475 118.754 135.466 118.748 135.456 118.742C135.233 118.612 135 118.501 134.76 118.407C134.746 118.402 134.732 118.396 134.718 118.39C133.972 118.106 133.156 117.997 132.339 118.1C132.544 118.402 132.721 118.728 132.857 119.081C133.839 121.617 132.567 124.495 130.032 125.475L126.932 126.675C128.286 129.013 129.795 129.523 129.795 129.523L134.743 127.608C137.279 126.626 138.551 123.749 137.569 121.213Z" fill="#BF1920"/>
<path d="M117.315 125.529C117.163 125.88 117.087 126.329 117.344 126.613C117.587 126.881 118.009 126.87 118.364 126.802C118.996 126.681 119.605 126.447 120.155 126.114C120.533 125.886 120.891 125.601 121.106 125.215C121.765 124.036 120.655 123.308 119.602 123.587C118.605 123.851 117.727 124.58 117.315 125.529Z" fill="#600D10"/>
<path d="M127.055 121.353C126.738 121.636 126.442 122.069 126.613 122.458C126.785 122.851 127.321 122.922 127.74 122.829C128.289 122.706 128.781 122.406 129.26 122.108C129.507 121.954 129.756 121.797 129.948 121.581C130.141 121.364 130.272 121.075 130.235 120.787C130.051 119.369 127.543 120.915 127.055 121.353Z" fill="#600D10"/>
</g>
</svg>
