<svg width="25" height="24" viewBox="0 0 25 24" fill="none" xmlns="http://www.w3.org/2000/svg">
<path d="M20.1652 6.82L14.4052 2.79C12.8352 1.69 10.4252 1.75 8.91523 2.92L3.90523 6.83C2.90523 7.61 2.11523 9.21 2.11523 10.47V17.37C2.11523 19.92 4.18523 22 6.73523 22H17.5152C20.0652 22 22.1352 19.93 22.1352 17.38V10.6C22.1352 9.25 21.2652 7.59 20.1652 6.82ZM12.8752 18C12.8752 18.41 12.5352 18.75 12.1252 18.75C11.7152 18.75 11.3752 18.41 11.3752 18V15C11.3752 14.59 11.7152 14.25 12.1252 14.25C12.5352 14.25 12.8752 14.59 12.8752 15V18Z" fill="#D64339"/>
</svg>
